Crickx_droite.sfdir

StartChar: exclam
Encoding: 33 33 110
Width: 1000
VWidth: 0
Flags: H
LayerCount: 2
Fore
SplineSet
219 666 m 1
 219 185 l 1
 76 185 l 1
 78 666 l 1
 219 666 l 1
218 134 m 1
 218 0 l 1
 77 0 l 1
 77 134 l 1
 218 134 l 1
EndSplineSet
EndChar

StartChar: quotedbl
Encoding: 34 34 103
Width: 1000
VWidth: 0
Flags: H
LayerCount: 2
Fore
SplineSet
97 383 m 1
 116 505 l 1
 59 505 l 1
 72 666 l 1
 229 666 l 1
 178 384 l 1
 97 383 l 1
284 383 m 1
 306 505 l 1
 249 505 l 1
 262 666 l 1
 419 665 l 1
 368 384 l 1
 284 383 l 1
EndSplineSet
EndChar

StartChar: numbersign
Encoding: 35 35 64
Width: 1000
VWidth: 0
Flags: H
LayerCount: 2
Fore
SplineSet
568 387 m 1
 549 273 l 1
 285 273 l 1
 274 203 l 1
 345 203 l 1
 354 267 l 1
 478 266 l 1
 467 203 l 1
 538 203 l 1
 519 86 l 1
 448 86 l 1
 434 1 l 1
 310 1 l 1
 325 86 l 1
 253 86 l 1
 240 1 l 1
 116 1 l 1
 131 86 l 1
 56 86 l 1
 76 203 l 1
 152 203 l 1
 162 273 l 1
 85 273 l 1
 104 387 l 1
 180 387 l 1
 193 470 l 1
 316 470 l 1
 303 387 l 1
 376 387 l 1
 387 470 l 1
 511 470 l 1
 498 387 l 1
 568 387 l 1
EndSplineSet
EndChar

StartChar: dollar
Encoding: 36 36 115
Width: 596
VWidth: 0
Flags: HW
LayerCount: 2
Fore
SplineSet
382.493 658.583 m 1
 497.424 612.659 477.791 464.64 478.6 464.64 c 2
 344.2 464.64 l 1
 344.2 495.36 l 2
 345.16 495.36 346.12 533.76 299.08 533.76 c 0
 246.28 533.76 254.92 468.48 254.92 468.48 c 1
 254.92 389.76 474.76 410.88 476.68 294.72 c 1
 476.68 132.48 l 1
 476.68 132.48 466.222 41.6238 364.402 9.85189 c 1
 364.402 9.85189 l 1
 360 -98 l 1
 202 -98 l 1
 205.785 13.2702 l 1
 205.785 13.2702 l 1
 127.427 45.4346 121.48 120.96 121.48 120.96 c 2
 121.48 221.76 l 1
 253.96 221.76 l 1
 253.96 221.76 240.52 144.96 291.4 144.96 c 1
 347.08 142.08 342.28 214.08 342.28 215.04 c 0
 342.28 337.92 117.64 241.92 117.64 432 c 2
 117.64 531.84 l 1
 117.64 531.84 130.324 623.799 224.25 658.746 c 1
 224.25 658.746 l 1
 228 769 l 1
 387 769 l 1
 382.493 658.583 l 1
 382.493 658.583 l 1
EndSplineSet
EndChar

StartChar: percent
Encoding: 37 37 63
Width: 636
VWidth: 0
Flags: HW
LayerCount: 2
Fore
SplineSet
480 672 m 1
 591 608 l 1
 359 241 l 1
 409 130 l 1
 407.667 129.333 406.667 128.333 406 127 c 0
 404.667 124.333 404 121.333 404 118 c 0
 404 111.333 406.5 105 411.5 99 c 0
 416.5 93 423.333 90 432 90 c 0
 440 90 446.667 93.5 452 100.5 c 0
 457.333 107.5 460 113.333 460 118 c 0
 460 124.667 457.833 130.833 453.5 136.5 c 0
 449.167 142.167 443 145 435 145 c 0
 431.667 145 428.667 144.5 426 143.5 c 0
 423.333 142.5 421.333 141.333 420 140 c 0
 418 138.667 416.333 137.333 415 136 c 1
 368 245 l 1
 371.333 249 376.667 252.333 384 255 c 1
 389.333 257.667 396.833 260 406.5 262 c 0
 416.167 264 428.333 265 443 265 c 0
 464.333 265 483.167 260.833 499.5 252.5 c 0
 515.833 244.167 529.5 233.167 540.5 219.5 c 0
 551.5 205.833 559.833 190.667 565.5 174 c 0
 571.167 157.333 574 141 574 125 c 0
 574 111 571.167 96 565.5 80 c 0
 559.833 64 551.167 49.1667 539.5 35.5 c 0
 527.833 21.8333 512.667 10.5 494 1.5 c 0
 475.333 -7.5 453 -12 427 -12 c 0
 395 -12 369.167 -5.16667 349.5 8.5 c 0
 329.833 22.1667 314.833 37.8333 304.5 55.5 c 0
 294.167 73.1667 287.5 90.3333 284.5 107 c 0
 281.5 123.667 280.667 134.667 282 140 c 1
 165 -25 l 1
 49 47 l 1
 303 414 l 1
 259 517 l 1
 262.333 517.667 265.333 519.333 268 522 c 0
 270 524 272 526.833 274 530.5 c 0
 276 534.167 277 538.667 277 544 c 0
 277 552 274.5 558.5 269.5 563.5 c 0
 264.5 568.5 258.333 571 251 571 c 0
 243.667 571 237.167 568.667 231.5 564 c 0
 225.833 559.333 223 552.667 223 544 c 0
 223 533.333 226.5 525.833 233.5 521.5 c 0
 240.5 517.167 246.333 515.667 251 517 c 1
 294 412 l 1
 288 408 281 404.5 273 401.5 c 0
 265 398.5 257 397 249 397 c 0
 232.333 397 215.167 399.833 197.5 405.5 c 0
 179.833 411.167 163.833 419.833 149.5 431.5 c 0
 135.167 443.167 123.333 457.833 114 475.5 c 0
 104.667 493.167 100 514 100 538 c 0
 100 582 114.167 615.333 142.5 638 c 0
 170.833 660.667 207 672 251 672 c 0
 281 672 305.167 666.5 323.5 655.5 c 0
 341.833 644.5 356 631.667 366 617 c 0
 376 602.333 382.667 588 386 574 c 0
 389.333 560 391 549.667 391 543 c 1
 480 672 l 1
EndSplineSet
EndChar

StartChar: ampersand
Encoding: 38 38 85
Width: 613
VWidth: 0
Flags: HW
LayerCount: 2
Fore
SplineSet
565 159 m 1
 565 159 608.679 86.9141 658 55 c 9
 528 -23 l 1
 486 15 455 72 455.374 71.9609 c 1
 455 73 408 0 299.2 -0.959961 c 1
 128 0 120.64 128 120.64 240.96 c 1
 117.76 435.84 343.36 384 343.36 473.28 c 0
 343.36 500.16 350.08 566.4 296.32 563.52 c 0
 243.596 560.695 246.4 508.8 246.4 508.8 c 0
 246.4 463.68 255.04 453.12 282.88 424.32 c 1
 244.48 410.88 193.6 392.64 167.68 371.52 c 1
 166.72 372.48 114.88 396.48 116.8 537.6 c 0
 118.576 668.147 249.28 691.2 291.52 691.2 c 1
 489.28 691.2 489.28 565.44 489.28 453.12 c 1
 489.28 340.8 258.88 341.76 258.88 256.32 c 1
 259.712 205.892 246.4 149.76 307.84 149.76 c 1
 362.56 149.76 381 187 381 187 c 1
 381 187 380 238 296.498 295.627 c 1
 341 322 374 332 407 352 c 1
 481 308 503 257 504.789 254.189 c 1
 504 254 564 302 612 329 c 1
 612 189 l 1
 612 188 593 182 565 159 c 1
EndSplineSet
EndChar

StartChar: quotesingle
Encoding: 39 39 83
Width: 1000
VWidth: 0
Flags: H
LayerCount: 2
Fore
SplineSet
92 383 m 1
 111 505 l 1
 59 505 l 1
 68 666 l 1
 229 666 l 1
 178 384 l 1
 92 383 l 1
EndSplineSet
EndChar

StartChar: parenleft
Encoding: 40 40 98
Width: 408
VWidth: 0
Flags: HW
LayerCount: 2
Fore
SplineSet
289.638 618.405 m 1
 264.896 608.412 244.361 589.973 228.033 563.087 c 0
 211.704 536.202 199.051 506.354 190.072 473.547 c 0
 181.095 440.738 175.322 407.932 172.756 375.126 c 0
 170.189 342.32 170.627 315.054 174.068 293.324 c 0
 176.885 275.546 181.009 256.962 186.442 237.573 c 0
 191.876 218.185 198.877 199.551 207.446 181.671 c 0
 216.016 163.791 226.403 147.212 238.61 131.934 c 0
 250.817 116.655 264.998 104.896 281.153 96.6543 c 1
 281.481 -46.0508 l 1
 244.947 -36.9883 212.682 -21.8496 184.685 -0.634766 c 0
 156.688 20.5801 132.476 45.6006 112.048 74.4268 c 0
 91.6201 103.253 75.3506 134.594 63.2393 168.449 c 0
 51.127 202.305 42.3076 236.682 36.7803 271.58 c 0
 31.9824 301.869 30.2949 333.832 31.7178 367.469 c 0
 33.1396 401.104 37.7422 434.907 45.5234 468.877 c 0
 53.3057 502.846 64.1201 535.776 77.9688 567.668 c 0
 91.8164 599.561 108.768 628.907 128.822 655.708 c 0
 148.877 682.508 172.165 705.939 198.686 726.002 c 0
 225.207 746.064 255.223 761.112 288.732 771.145 c 1
 289.638 618.405 l 1
EndSplineSet
EndChar

StartChar: parenright
Encoding: 41 41 102
Width: 1000
VWidth: 0
Flags: HW
LayerCount: 2
Fore
SplineSet
31.7178 618.405 m 5
 56.459 608.412 76.9941 589.973 93.3223 563.087 c 4
 109.651 536.202 122.305 506.354 131.283 473.547 c 4
 140.261 440.738 146.033 407.932 148.6 375.126 c 4
 151.166 342.32 150.729 315.054 147.287 293.324 c 4
 144.471 275.546 140.347 256.962 134.913 237.573 c 4
 129.479 218.185 122.479 199.551 113.909 181.671 c 4
 105.34 163.791 94.9521 147.212 82.7451 131.934 c 4
 70.5381 116.655 56.3574 104.896 40.2021 96.6543 c 5
 39.874 -46.0508 l 5
 76.4082 -36.9883 108.674 -21.8496 136.671 -0.634766 c 4
 164.668 20.5801 188.88 45.6006 209.308 74.4268 c 4
 229.735 103.253 246.005 134.594 258.116 168.449 c 4
 270.229 202.305 279.048 236.682 284.575 271.58 c 4
 289.373 301.869 291.061 333.832 289.638 367.469 c 4
 288.216 401.104 283.613 434.907 275.832 468.877 c 4
 268.05 502.846 257.235 535.776 243.387 567.668 c 4
 229.539 599.561 212.588 628.907 192.533 655.708 c 4
 172.479 682.508 149.19 705.939 122.67 726.002 c 4
 96.1484 746.064 66.1328 761.112 32.623 771.145 c 5
 31.7178 618.405 l 5
EndSplineSet
EndChar

StartChar: asterisk
Encoding: 42 42 73
Width: 1000
VWidth: 0
Flags: H
LayerCount: 2
Fore
SplineSet
185 256 m 1
 135 335 l 1
 235 395 l 1
 292 305 l 1
 362 397 l 1
 453 329 l 1
 397 261 l 1
 487 262 l 1
 470 154 l 1
 390 154 l 1
 428 88 l 1
 332 17 l 1
 279 109 l 1
 214 18 l 1
 120 86 l 1
 172 148 l 1
 145.333 147.333 123.333 147.333 106 148 c 0
 88.6667 148.667 79.6667 148.667 79 148 c 0
 78.3333 147.333 79 152.833 81 164.5 c 0
 83 176.167 85.3333 188.667 88 202 c 2
 97 256 l 1
 185 256 l 1
EndSplineSet
EndChar

StartChar: plus
Encoding: 43 43 69
Width: 1000
VWidth: 0
Flags: H
LayerCount: 2
Fore
SplineSet
276 356 m 5
 276 242 l 5
 392.16 242 l 5
 392 122 l 5
 275 122 l 5
 275 -1 l 5
 148 0 l 5
 148 120 l 5
 33 120 l 5
 33 242 l 5
 148 242 l 5
 148 356 l 5
 276 356 l 5
EndSplineSet
EndChar

StartChar: comma
Encoding: 44 44 74
Width: 1000
VWidth: 0
Flags: HW
LayerCount: 2
Fore
SplineSet
112 -118 m 5
 136 0 l 5
 76 0 l 5
 76 158 l 5
 225 158 l 5
 225.667 136.667 225.667 115.667 225 95 c 4
 224.333 77.6667 223.333 59.5 222 40.5 c 4
 220.667 21.5 218.667 5.33333 216 -8 c 4
 214 -19.3333 211.667 -29 209 -37 c 4
 206.333 -45 203.5 -52.8333 200.5 -60.5 c 4
 197.5 -68.1667 194 -76.3333 190 -85 c 4
 186 -93.6667 181.667 -104.333 177 -117 c 5
 112 -118 l 5
EndSplineSet
EndChar

StartChar: hyphen
Encoding: 45 45 71
Width: 1000
VWidth: 0
Flags: HW
LayerCount: 2
Fore
SplineSet
33 120 m 5
 33 242 l 5
 392.16 242 l 5
 392 121 l 5
 33 120 l 5
EndSplineSet
EndChar

StartChar: period
Encoding: 46 46 71
Width: 266
VWidth: 0
Flags: HW
LayerCount: 2
Fore
SplineSet
209 147 m 5
 208 0 l 5
 50 0 l 5
 50 147 l 5
 209 147 l 5
EndSplineSet
EndChar

StartChar: slash
Encoding: 47 47 74
Width: 488
VWidth: 0
Flags: HW
LayerCount: 2
Fore
SplineSet
453 684 m 5
 196 -1 l 5
 50 1 l 5
 311 684 l 5
 453 684 l 5
EndSplineSet
EndChar

StartChar: zero
Encoding: 48 48 123
Width: 540
VWidth: 0
Flags: HW
LayerCount: 2
Fore
SplineSet
311.11 675.175 m 21
 311.11 675.175 65.335 728.428 65.335 363.263 c 4
 65.335 39.9395 177.978 -13.3125 267.367 -7.6084 c 4
 394.593 0.512695 492.202 49.4492 492.202 329.028 c 5
 492.202 473.573 495.595 635.234 324.424 675.175 c 13
 324.424 188.288 l 21
 324.424 188.288 311.11 163.563 274.975 163.563 c 4
 225.524 163.563 229.329 197.798 229.329 197.798 c 13
 229.329 464.063 l 21
 229.329 462.162 233.133 509.709 269.269 509.709 c 4
 305.404 509.709 294.792 502.748 311.11 498.298 c 29
 311.11 675.175 l 21
EndSplineSet
EndChar

StartChar: uni0031
Encoding: 49 49 0
Width: 481
VWidth: 0
InSpiro: 1
Flags: HW
LayerCount: 2
Fore
SplineSet
107.04 355.2 m 1
 107.04 487.68 l 1
 228 668.16 l 1
 354.72 670.08 l 1
 360.48 0 l 1
 214.56 0 l 1
 214.56 422.4 l 1
 107.04 355.2 l 1
  Spiro
    107.04 355.2 v
    107.04 487.68 v
    228 668.16 v
    354.72 670.08 v
    360.48 0 v
    214.56 0 v
    214.56 422.4 v
    0 0 z
  EndSpiro
EndSplineSet
EndChar

StartChar: uni0032
Encoding: 50 50 1
Width: 607
VWidth: 0
Flags: HW
LayerCount: 2
Fore
SplineSet
485.4 0 m 29
 486.36 126.72 l 21
 276.12 126.72 l 4
 276.12 201.6 488.28 336.96 488.28 499.2 c 4
 488.28 585.6 436.44 676.8 336.6 676.8 c 4
 119.64 676.8 135.96 443.52 135 443.52 c 13
 255.96 437.76 l 21
 255.96 437.76 246.36 531.84 305.88 531.84 c 5
 351.96 531.84 350.04 477.12 350.04 477.12 c 4
 350.04 349.44 111.96 318.72 111.96 55.6797 c 4
 111.96 -3.83984 111.96 21.7148 111.96 0 c 29
 485.4 0 l 29
EndSplineSet
EndChar

StartChar: uni0033
Encoding: 51 51 2
Width: 621
VWidth: 0
Flags: HW
LayerCount: 2
Fore
SplineSet
127.24 668.16 m 29
 123.4 533.76 l 29
 273.16 533.76 l 29
 133 382.08 l 29
 221.32 291.84 l 21
 221.32 292.8 263.56 335.04 301.96 335.04 c 5
 352.84 335.04 353.016 287.827 351.88 288 c 13
 351.88 198.72 l 29
 351.88 198.72 355.72 146.88 305.8 146.88 c 5
 261.64 146.88 263.56 188.16 263.56 188.16 c 13
 263.56 218.88 l 29
 113.8 218.88 l 21
 113.8 218.88 99.4004 0 307.72 -1.91992 c 4
 515.08 -3.83105 503.56 172.8 503.56 170.88 c 13
 499.72 376.32 l 21
 499.72 376.32 496.84 445.44 379.72 445.44 c 4
 379.72 445.44 450.577 513.369 495.88 556.8 c 29
 493.96 668.16 l 29
 127.24 668.16 l 29
EndSplineSet
EndChar

StartChar: uni0034
Encoding: 52 52 3
Width: 666
VWidth: 0
InSpiro: 1
Flags: HW
LayerCount: 2
Fore
SplineSet
345.24 483.84 m 1
 238.68 305.28 l 1
 346.2 305.28 l 1
 345.24 483.84 l 1
  Spiro
    238.68 305.28 v
    346.2 305.28 v
    345.24 483.84 v
    0 0 z
  EndSpiro
336.6 677.76 m 1
 494.04 676.8 l 1
 492.12 299.52 l 1
 557.4 297.6 l 1
 553.56 155.52 l 1
 492.12 155.52 l 1
 492.12 0 l 1
 353.88 0 l 1
 351.96 157.44 l 1
 104.28 157.44 l 1
 102.36 293.76 l 1
 336.6 677.76 l 1
  Spiro
    336.6 677.76 v
    494.04 676.8 v
    492.12 299.52 v
    557.4 297.6 v
    553.56 155.52 v
    492.12 155.52 v
    492.12 0 v
    353.88 0 v
    351.96 157.44 v
    104.28 157.44 v
    102.36 293.76 v
    0 0 z
  EndSpiro
EndSplineSet
EndChar

StartChar: uni0035
Encoding: 53 53 4
Width: 615
VWidth: 0
Flags: HW
LayerCount: 2
Fore
SplineSet
120.64 679.68 m 25
 120.64 299.52 l 25
 262.72 299.52 l 17
 261.76 300.48 277.253 333.12 304.96 333.12 c 1
 362.56 335.04 358.72 276.756 358.72 278.4 c 9
 356.8 197.76 l 17
 356.8 197.76 357.76 145.92 303.04 145.92 c 0
 258.88 145.92 258.88 188.16 258.88 188.16 c 9
 258.88 216.96 l 25
 122.56 219.84 l 25
 122.56 130.56 l 17
 122.56 130.56 136.96 0 317.44 -0.959961 c 0
 480.637 -1.82812 493.12 154.56 493.12 154.56 c 9
 496.96 342.72 l 17
 496.96 342.72 490.24 456 372.16 456 c 0
 319.36 456 266.56 426.24 266.56 426.24 c 9
 266.56 539.52 l 25
 496.96 545.28 l 25
 496.96 679.68 l 25
 120.64 679.68 l 25
EndSplineSet
EndChar

StartChar: uni0036
Encoding: 54 54 5
Width: 610
VWidth: 0
Flags: HW
LayerCount: 2
Fore
SplineSet
359.68 388.8 m 1
 321.78 390.431 304.882 379.149 270.4 364.8 c 9
 270.4 249.6 l 17
 270.4 249.6 276.16 263.04 308.8 263.04 c 0
 341.44 263.04 347.2 224.64 347.2 224.64 c 0
 347.2 224.64 362.56 138.24 301.12 138.24 c 0
 258.837 138.24 260.8 184.32 260.8 184.32 c 9
 260.8 474.24 l 17
 260.8 474.24 260.8 532.8 308.8 532.8 c 1
 374.08 532.8 360.64 452.16 360.64 452.16 c 9
 493.12 456.96 l 25
 493.12 524.16 l 17
 492.16 524.16 491.2 668.16 316.48 668.16 c 0
 157.12 668.16 118.72 543.36 118.72 501.12 c 9
 118.72 159.36 l 17
 118.72 159.36 127.36 0 293.44 0 c 0
 475.84 0 491.2 182.4 491.2 182.4 c 1
 491.2 272.64 483.52 388.8 359.68 388.8 c 1
EndSplineSet
EndChar

StartChar: uni0037
Encoding: 55 55 6
Width: 559
VWidth: 0
InSpiro: 1
Flags: HW
LayerCount: 2
Fore
SplineSet
129.96 529.92 m 1
 131.88 666.24 l 1
 464.04 666.24 l 1
 462.12 557.76 l 1
 235.56 -0.959961 l 1
 93.4805 0 l 1
 298.92 531.84 l 1
 129.96 529.92 l 1
  Spiro
    129.96 529.92 v
    131.88 666.24 v
    464.04 666.24 v
    462.12 557.76 v
    235.56 -0.96 v
    93.48 0 v
    298.92 531.84 v
    0 0 z
  EndSpiro
EndSplineSet
EndChar

StartChar: uni0038
Encoding: 56 56 7
Width: 613
VWidth: 0
Flags: HW
LayerCount: 2
Fore
SplineSet
258.88 256.32 m 5
 258.88 341.76 489.28 340.8 489.28 453.12 c 5
 489.28 565.44 489.28 691.2 291.52 691.2 c 5
 249.28 691.2 118.576 668.147 116.8 537.6 c 4
 114.88 396.48 166.72 372.48 167.68 371.52 c 5
 193.6 392.64 244.48 410.88 282.88 424.32 c 5
 255.04 453.12 246.4 463.68 246.4 508.8 c 4
 246.4 508.8 243.596 560.695 296.32 563.52 c 4
 350.08 566.4 343.36 500.16 343.36 473.28 c 4
 343.36 384 117.76 435.84 120.64 240.96 c 4
 122.172 137.291 126.405 -2.26953 299.2 -0.959961 c 4
 425.92 0 496.96 87.3604 496.96 209.28 c 4
 496.96 336.96 447.04 374.4 447.04 374.4 c 5
 399.04 337.92 358.72 336.96 310.72 307.2 c 5
 331.84 286.08 353.92 264.96 353.92 232.32 c 4
 353.92 199.68 362.56 149.76 307.84 149.76 c 5
 246.4 149.76 259.712 205.892 258.88 256.32 c 5
EndSplineSet
EndChar

StartChar: uni0039
Encoding: 57 57 8
Width: 609
VWidth: 0
Flags: HW
LayerCount: 2
Fore
SplineSet
250.16 279.36 m 1
 288.06 277.729 307.838 289.012 342.32 303.36 c 13
 342.32 418.56 l 21
 342.32 418.56 333.68 405.12 301.04 405.12 c 0
 268.4 405.12 262.64 443.52 262.64 443.52 c 0
 262.64 443.52 247.28 529.92 308.72 529.92 c 0
 351.003 529.92 350.96 483.84 350.96 483.84 c 9
 350.96 193.92 l 17
 350.96 193.92 349.04 135.36 301.04 135.36 c 1
 235.76 135.36 249.2 216 249.2 216 c 9
 116.72 211.2 l 25
 116.72 144 l 17
 117.68 144 118.64 0 293.36 0 c 0
 452.72 0 491.12 124.8 491.12 167.04 c 9
 491.12 508.8 l 17
 491.12 508.8 482.48 668.16 316.4 668.16 c 0
 116.72 668.16 118.64 485.76 118.64 485.76 c 1
 118.64 395.52 126.32 279.36 250.16 279.36 c 1
EndSplineSet
EndChar

StartChar: colon
Encoding: 58 58 79
Width: 260
VWidth: 0
Flags: HW
LayerCount: 2
Fore
SplineSet
209 397 m 1
 208 250 l 1
 50 250 l 1
 50 397 l 1
 209 397 l 1
209 147 m 1
 208 0 l 1
 50 0 l 1
 50 147 l 1
 209 147 l 1
EndSplineSet
EndChar

StartChar: semicolon
Encoding: 59 59 81
Width: 1000
VWidth: 0
Flags: H
LayerCount: 2
Fore
SplineSet
230 397 m 1
 229 250 l 1
 71 250 l 1
 71 397 l 1
 230 397 l 1
112 -118 m 1
 136 0 l 1
 76 0 l 1
 76 158 l 1
 225 158 l 1
 225.667 136.667 225.667 115.667 225 95 c 0
 224.333 77.6667 223.333 59.5 222 40.5 c 0
 220.667 21.5 218.667 5.33333 216 -8 c 0
 214 -19.3333 211.667 -29 209 -37 c 0
 206.333 -45 203.5 -52.8333 200.5 -60.5 c 0
 197.5 -68.1667 194 -76.3333 190 -85 c 0
 186 -93.6667 181.667 -104.333 177 -117 c 1
 112 -118 l 1
EndSplineSet
EndChar

StartChar: less
Encoding: 60 60 127
Width: 466
VWidth: 0
Flags: HW
LayerCount: 2
Fore
SplineSet
205 197 m 5
 402 400 l 5
 262 400 l 5
 61 196 l 5
 259 0 l 5
 406 0 l 5
 205 197 l 5
EndSplineSet
EndChar

StartChar: equal
Encoding: 61 61 119
Width: 454
VWidth: 0
Flags: HW
LayerCount: 2
Fore
SplineSet
33 227 m 5
 33 349 l 5
 392.16 349 l 5
 392 228 l 5
 33 227 l 5
33 58 m 5
 33 180 l 5
 392.16 180 l 5
 392 59 l 5
 33 58 l 5
EndSplineSet
EndChar

StartChar: greater
Encoding: 62 62 128
Width: 466
VWidth: 0
Flags: HW
LayerCount: 2
Fore
SplineSet
262 197 m 1
 65 400 l 1
 205 400 l 1
 406 196 l 1
 208 0 l 1
 61 0 l 1
 262 197 l 1
EndSplineSet
EndChar

StartChar: question
Encoding: 63 63 102
Width: 607
VWidth: 0
Flags: HW
LayerCount: 2
Fore
SplineSet
227 155 m 1
 164 155 l 1
 163.96 212.68 l 1
 165.906 372.208 316.04 391 316.04 496.12 c 1
 316.04 496.12 317.933 552.412 271.88 550.84 c 0
 218 549 218.96 479.76 218.96 479.76 c 1
 110 526 l 2
 109.117 526.393 99 695.8 295.6 695.8 c 0
 395.44 695.8 456.28 604.6 456.28 518.2 c 0
 456.28 355.96 303.12 309 303.12 233.72 c 0
 303.12 182.739 303.12 177.511 303.12 155 c 1
 240 155 l 1
 240 123 l 1
 305 123 l 1
 304 2 l 1
 165 2 l 1
 165 123 l 1
 227 123 l 1
 227 155 l 1
EndSplineSet
EndChar

StartChar: at
Encoding: 64 64 62
Width: 860
VWidth: 0
Flags: HW
LayerCount: 2
Fore
SplineSet
486 678 m 0
 506 678 528.667 676.167 554 672.5 c 0
 579.333 668.833 604.667 662.167 630 652.5 c 0
 655.333 642.833 679.5 629.667 702.5 613 c 0
 725.5 596.333 745 575.167 761 549.5 c 0
 777 523.833 788.333 492.833 795 456.5 c 0
 801.667 420.167 801 377.667 793 329 c 0
 789.667 309.667 785 288 779 264 c 0
 773 240 763.833 217.5 751.5 196.5 c 0
 739.167 175.5 723 157.833 703 143.5 c 0
 683 129.167 657.333 122 626 122 c 0
 598 122 574.333 126 555 134 c 0
 535.667 142 520.333 153.333 509 168 c 0
 505.667 173.333 502.167 180.5 498.5 189.5 c 0
 494.833 198.5 491.333 207.667 488 217 c 0
 484 227.667 480 239 476 251 c 0
 476 253 477 260.833 479 274.5 c 0
 481 288.167 483.333 302.667 486 318 c 0
 488.667 336 492.333 356 497 378 c 1
 451 378 l 2
 437 378 425.667 370 417 354 c 0
 408.333 338 400.667 308.333 394 265 c 0
 392.667 259 393.333 254 396 250 c 0
 398.667 246 401.833 242.833 405.5 240.5 c 0
 409.167 238.167 413.167 236.5 417.5 235.5 c 0
 421.833 234.5 425.333 234 428 234 c 0
 430.667 234 434.333 234.667 439 236 c 2
 453 240 l 1
 469 246 l 1
 502 165 l 1
 498.667 163 493 160.333 485 157 c 0
 477 153.667 467.167 150.333 455.5 147 c 0
 443.833 143.667 430.833 140.833 416.5 138.5 c 0
 402.167 136.167 387 135 371 135 c 0
 355.667 135 340 138 324 144 c 0
 308 150 293.667 159 281 171 c 0
 268.333 183 258.833 198 252.5 216 c 0
 246.167 234 245.333 254.667 250 278 c 0
 258.667 322.667 271.167 357.833 287.5 383.5 c 0
 303.833 409.167 321.667 428.333 341 441 c 0
 360.333 453.667 380.333 461.5 401 464.5 c 0
 421.667 467.5 441 469 459 469 c 2
 629 469 l 1
 623 433.667 618 401.667 614 373 c 0
 612 361 610.167 349 608.5 337 c 0
 606.833 325 605.167 314.167 603.5 304.5 c 0
 601.833 294.833 600.667 287 600 281 c 0
 599.333 275 599 271.667 599 271 c 0
 599 267 600.333 261.833 603 255.5 c 0
 605.667 249.167 612 246 622 246 c 0
 626.667 246 631.333 250.5 636 259.5 c 0
 640.667 268.5 645 280.167 649 294.5 c 0
 653 308.833 656.5 324.833 659.5 342.5 c 0
 662.5 360.167 665.333 377.667 668 395 c 0
 670.667 417 669.667 437 665 455 c 0
 660.333 473 650.833 488.667 636.5 502 c 0
 622.167 515.333 602.833 525.667 578.5 533 c 0
 554.167 540.333 524 544 488 544 c 0
 464.667 544 438.667 542 410 538 c 0
 381.333 534 353.333 523.667 326 507 c 0
 298.667 490.333 273.833 465.167 251.5 431.5 c 0
 229.167 397.833 212.667 351.667 202 293 c 0
 194.667 251 196.833 216.167 208.5 188.5 c 0
 220.167 160.833 235.667 138.833 255 122.5 c 0
 274.333 106.167 295 94.6667 317 88 c 0
 339 81.3333 356.333 78 369 78 c 0
 379.667 78 391.833 79.5 405.5 82.5 c 0
 419.167 85.5 432.667 88.6667 446 92 c 0
 460.667 96 476 101 492 107 c 1
 557 31 l 1
 540.333 17.6667 521.667 6 501 -4 c 0
 483 -12.6667 461.833 -20.5 437.5 -27.5 c 0
 413.167 -34.5 386 -38 356 -38 c 0
 306 -38 260.667 -28 220 -8 c 0
 179.333 12 145.667 38.8333 119 72.5 c 0
 92.3333 106.167 73.5 144.667 62.5 188 c 0
 51.5 231.333 50.6667 276.333 60 323 c 0
 82.6667 439.667 128.5 528 197.5 588 c 0
 266.5 648 362.667 678 486 678 c 0
EndSplineSet
EndChar

StartChar: uni0041
Encoding: 65 65 9
Width: 507
VWidth: 0
InSpiro: 1
Flags: HW
LayerCount: 2
Fore
SplineSet
222.04 211.2 m 1
 289.24 213.12 l 1
 253.721 337.92 l 1
 222.04 211.2 l 1
  Spiro
    222.039 211.2 v
    289.239 213.12 v
    253.719 337.92 v
    0 0 z
  EndSpiro
317.08 669.12 m 1
 487 0 l 1
 337.24 0 l 1
 310.36 109.44 l 1
 197.08 107.52 l 1
 172.12 0 l 1
 20.4395 0 l 1
 191.32 668.16 l 1
 317.08 669.12 l 1
  Spiro
    317.079 669.12 v
    486.999 0 v
    337.239 0 v
    310.359 109.44 v
    197.079 107.52 v
    172.119 0 v
    20.4386 0 v
    191.319 668.16 v
    0 0 z
  EndSpiro
EndSplineSet
EndChar

StartChar: uni0042
Encoding: 66 66 10
Width: 471
VWidth: 0
Flags: HW
LayerCount: 2
Fore
SplineSet
203.64 288 m 1
 203.64 128.64 l 17
 234.359 128.64 269.88 123.84 269.88 172.8 c 0
 269.88 242.88 l 1
 267.479 293.76 250.2 288 203.64 288 c 1
271.8 491.52 m 1
 271.8 552.96 246.359 543.36 202.68 543.36 c 9
 202.68 424.32 l 17
 237.72 424.32 271.8 414.72 271.8 491.52 c 1
70.2002 669.12 m 25
 289.08 669.12 l 1
 394.68 668.16 411 574.08 411 511.68 c 1
 411 398.4 340.92 372.48 340.92 372.48 c 0
 340.92 372.48 411 349.44 411 258.24 c 0
 411 133.44 l 1
 411 13.4404 350.52 0 254.52 0 c 1
 70.2002 0 l 9
 70.2002 669.12 l 25
EndSplineSet
EndChar

StartChar: uni0043
Encoding: 67 67 11
Width: 476
VWidth: 0
Flags: HW
LayerCount: 2
Fore
SplineSet
424.658 445.44 m 29
 290.258 445.44 l 29
 290.258 491.52 l 21
 290.258 491.52 294.098 534.72 240.338 534.72 c 4
 193.298 534.72 195.218 466.56 195.218 466.56 c 13
 196.178 199.68 l 21
 196.178 199.68 192.338 137.28 238.418 137.28 c 5
 298.897 135.36 290.258 222.72 288.338 259.2 c 13
 418.897 259.2 l 29
 418.897 160.32 l 21
 418.897 160.32 424.676 1.125 227.857 0 c 4
 59.8574 -0.959961 59.8574 163.2 59.8574 163.2 c 13
 61.7773 529.92 l 21
 61.7773 528.74 71.3779 668.16 244.178 668.16 c 5
 453.458 668.16 424.658 445.44 424.658 445.44 c 29
EndSplineSet
EndChar

StartChar: uni0044
Encoding: 68 68 12
Width: 496
VWidth: 0
Flags: HW
LayerCount: 2
Fore
SplineSet
210.159 130.56 m 17
 286.96 130.56 289.84 133.44 289.84 191.04 c 5
 298.479 503.04 l 1
 298.479 545.28 286.479 544.32 216.88 544.32 c 9
 210.159 130.56 l 17
435.76 389.76 m 1
 435.76 -12.4805 412.72 0 271.6 0 c 1
 70 0 l 9
 70 668.16 l 25
 70 668.16 124.72 668.16 193.84 668.16 c 1
 461.68 668.16 435.76 640.32 435.76 389.76 c 1
EndSplineSet
EndChar

StartChar: uni0045
Encoding: 69 69 13
Width: 440
VWidth: 0
InSpiro: 1
Flags: HW
LayerCount: 2
Fore
SplineSet
69.7207 667.2 m 1
 375 668.16 l 1
 373.08 545.28 l 1
 217.561 541.44 l 1
 219.48 414.72 l 1
 375 414.72 l 1
 373.08 284.16 l 1
 219.48 280.32 l 1
 219.48 126.72 l 1
 375 124.8 l 1
 371.16 0 l 1
 70.6807 0 l 1
 69.7207 667.2 l 1
  Spiro
    69.7204 667.2 v
    375 668.16 v
    373.08 545.28 v
    217.56 541.44 v
    219.48 414.72 v
    375 414.72 v
    373.08 284.16 v
    219.48 280.32 v
    219.48 126.72 v
    375 124.8 v
    371.16 0 v
    70.6804 0 v
    0 0 z
  EndSpiro
EndSplineSet
EndChar

StartChar: uni0046
Encoding: 70 70 14
Width: 541
VWidth: 0
InSpiro: 1
Flags: HW
LayerCount: 2
Fore
SplineSet
122.28 662.4 m 1
 416.04 672 l 1
 419.88 537.6 l 1
 270.12 531.84 l 1
 269.16 401.28 l 1
 423.72 407.04 l 1
 420.84 261.12 l 1
 268.2 257.28 l 1
 266.28 0 l 1
 122.28 0 l 1
 122.28 662.4 l 1
  Spiro
    122.28 662.4 v
    416.04 672 v
    419.88 537.6 v
    270.12 531.84 v
    269.16 401.28 v
    423.72 407.04 v
    420.84 261.12 v
    268.2 257.28 v
    266.28 0 v
    122.28 0 v
    0 0 z
  EndSpiro
EndSplineSet
EndChar

StartChar: uni0047
Encoding: 71 71 15
Width: 616
VWidth: 0
Flags: HW
LayerCount: 2
Fore
SplineSet
118.72 509.76 m 25
 118.72 165.12 l 17
 118.72 165.12 118.72 0 283.84 0 c 0
 498.88 0 493.12 153.6 493.12 154.56 c 9
 494.08 316.8 l 25
 314.56 316.8 l 25
 314.56 213.12 l 25
 352.96 213.12 l 17
 352.96 210.24 362.56 134.4 306.88 134.4 c 0
 262.679 134.4 262.72 190.08 262.72 190.08 c 9
 262.72 477.12 l 17
 263.68 477.12 258.88 532.8 304.96 532.8 c 0
 360.64 532.8 350.08 438.72 351.04 438.72 c 9
 497.92 432 l 17
 497.92 432.96 531.52 668.16 307.84 668.16 c 1
 118.72 668.16 118.72 509.76 118.72 509.76 c 25
EndSplineSet
EndChar

StartChar: uni0048
Encoding: 72 72 16
Width: 587
VWidth: 0
InSpiro: 1
Flags: HW
LayerCount: 2
Fore
SplineSet
122.24 666.24 m 1
 258.56 665.28 l 1
 256.64 397.44 l 1
 335.36 399.36 l 1
 337.28 668.16 l 1
 465.92 664.32 l 1
 461.12 0 l 1
 335.36 0 l 1
 331.52 264.96 l 1
 258.56 266.88 l 1
 254.72 0 l 1
 122.24 0 l 1
 122.24 666.24 l 1
  Spiro
    122.24 666.24 v
    258.56 665.28 v
    256.64 397.44 v
    335.36 399.36 v
    337.28 668.16 v
    465.92 664.32 v
    461.12 0 v
    335.36 0 v
    331.52 264.96 v
    258.56 266.88 v
    254.72 0 v
    122.24 0 v
    0 0 z
  EndSpiro
EndSplineSet
EndChar

StartChar: uni0049
Encoding: 73 73 17
Width: 384
VWidth: 0
InSpiro: 1
Flags: HW
LayerCount: 2
Fore
SplineSet
122.24 666.24 m 1
 266.24 666.24 l 1
 252.8 0 l 1
 122.24 0 l 1
 122.24 666.24 l 1
  Spiro
    122.24 666.24 v
    266.24 666.24 v
    252.8 0 v
    122.24 0 v
    0 0 z
  EndSpiro
EndSplineSet
EndChar

StartChar: uni004A
Encoding: 74 74 18
Width: 590
VWidth: 0
Flags: HW
LayerCount: 2
Fore
SplineSet
240.2 272.64 m 29
 240.2 192 l 21
 240.2 192 244.04 151.68 280.52 151.68 c 4
 336.2 151.68 332.36 220.8 332.36 220.8 c 13
 334.28 541.44 l 29
 242.12 541.44 l 29
 242.12 668.16 l 29
 468.68 668.16 l 29
 468.68 182.4 l 21
 468.68 130.56 445.64 0 280.52 0 c 5
 92.3604 0 103.88 193.92 103.88 193.92 c 13
 103.88 274.56 l 29
 240.2 272.64 l 29
EndSplineSet
EndChar

StartChar: uni004B
Encoding: 75 75 19
Width: 663
VWidth: 0
InSpiro: 1
Flags: HW
LayerCount: 2
Fore
SplineSet
122.24 667.2 m 1
 122.24 0 l 1
 264.32 0 l 1
 272.96 276.48 l 1
 389.12 0 l 1
 548.48 0 l 1
 392.96 393.6 l 1
 556.16 555.84 l 1
 464.96 676.8 l 1
 270.08 476.16 l 1
 270.08 667.2 l 1
 122.24 667.2 l 1
  Spiro
    122.24 667.2 v
    122.24 0 v
    264.32 0 v
    272.96 276.48 v
    389.12 0 v
    548.48 0 v
    392.96 393.6 v
    556.16 555.84 v
    464.96 676.8 v
    270.08 476.16 v
    270.08 667.2 v
    0 0 z
  EndSpiro
EndSplineSet
EndChar

StartChar: uni004C
Encoding: 76 76 20
Width: 535
VWidth: 0
InSpiro: 1
Flags: HW
LayerCount: 2
Fore
SplineSet
121.32 672 m 1
 269.16 666.24 l 1
 269.16 149.76 l 1
 430.44 144 l 1
 427.56 0 l 1
 125.16 0 l 1
 121.32 672 l 1
  Spiro
    121.32 672 v
    269.16 666.24 v
    269.16 149.76 v
    430.44 144 v
    427.56 0 v
    125.16 0 v
    0 0 z
  EndSpiro
EndSplineSet
EndChar

StartChar: uni004D
Encoding: 77 77 21
Width: 720
VWidth: 0
InSpiro: 1
Flags: HW
LayerCount: 2
Fore
SplineSet
124.2 2.87988 m 1
 122.28 669.12 l 1
 272.04 667.2 l 1
 358.44 521.28 l 1
 433.32 667.2 l 1
 592.68 661.44 l 1
 600.36 0 l 1
 452.52 0 l 1
 445.8 359.04 l 1
 370.84 236.16 l 1
 268.2 352.32 l 1
 272.04 0 l 1
 124.2 2.87988 l 1
  Spiro
    124.2 2.88 v
    122.28 669.12 v
    272.04 667.2 v
    358.44 521.28 v
    433.32 667.2 v
    592.68 661.44 v
    600.36 0 v
    452.52 0 v
    445.8 359.04 v
    370.84 236.16 v
    268.2 352.32 v
    272.04 0 v
    0 0 z
  EndSpiro
EndSplineSet
EndChar

StartChar: uni004E
Encoding: 78 78 22
Width: 531
VWidth: 0
InSpiro: 1
Flags: HW
LayerCount: 2
Fore
SplineSet
80.4404 664.32 m 1
 203.317 666.24 l 1
 307 489.6 l 1
 310.84 668.16 l 1
 451 666.24 l 1
 447.157 0.959961 l 1
 314.68 0.959961 l 1
 312.76 168.96 l 1
 228.277 299.52 l 1
 230.197 -1.91992 l 1
 84.2803 -1.91992 l 1
 80.4404 664.32 l 1
  Spiro
    80.4307 664.32 v
    203.311 666.24 v
    306.991 489.6 v
    310.831 668.16 v
    450.991 666.24 v
    447.151 0.96 v
    314.671 0.96 v
    312.751 168.96 v
    228.271 299.52 v
    230.191 -1.92 v
    84.2707 -1.92 v
    0 0 z
  EndSpiro
EndSplineSet
EndChar

StartChar: uni004F
Encoding: 79 79 23
Width: 494
VWidth: 0
Flags: HW
LayerCount: 2
Fore
SplineSet
433.998 513.6 m 4
 433.998 513.6 433.998 303.955 433.998 169.92 c 21
 433.998 169.92 436.878 -7.67969 243.918 -6.71973 c 4
 67.2803 -5.8418 61.5186 144 61.5186 144 c 13
 59.5986 380.16 l 21
 58.6387 595.2 81.6777 643.2 205.519 670.08 c 5
 204.559 185.28 l 21
 204.559 163.2 211.278 132.48 247.758 132.48 c 4
 279.438 132.48 293.838 152.64 293.838 188.16 c 13
 293.838 496.32 l 21
 293.838 518.4 281.358 545.28 253.519 545.28 c 4
 224.718 545.28 211.278 519.36 211.278 518.4 c 13
 211.278 672 l 21
 367.758 693.12 433.998 585.6 433.998 513.6 c 4
EndSplineSet
EndChar

StartChar: uni0050
Encoding: 80 80 24
Width: 596
VWidth: 0
Flags: HW
LayerCount: 2
Fore
SplineSet
271.64 407.52 m 9
 271.12 281.28 l 17
 383.48 281.28 l 1
 383.48 281.28 483.32 282.24 482.36 394.56 c 0
 481.573 486.716 482.36 492.94 482.36 555.84 c 17
 482.36 601.92 456.44 668.16 350.84 668.16 c 0
 350.84 668.16 211.467 668.16 122.36 668.16 c 25
 122.36 0 l 25
 260.6 0 l 25
 260.6 520.32 l 17
 332.12 520.32 340.76 527.04 340.76 468.48 c 0
 340.76 399.84 332.6 407.52 271.64 407.52 c 9
EndSplineSet
EndChar

StartChar: uni0051
Encoding: 81 81 25
Width: 704
VWidth: 0
Flags: HW
LayerCount: 2
Fore
SplineSet
286.68 233.28 m 25
 394.2 230.4 l 25
 393.24 466.56 l 17
 393.24 466.56 398.04 553.92 351.96 552.96 c 1
 306.84 552.96 285.72 504.96 285.72 430.08 c 9
 286.68 233.28 l 25
117.72 478.08 m 17
 117.72 517.44 201.237 692.16 395.16 692.16 c 1
 428.76 692.16 533.4 672 533.4 546.24 c 9
 515.16 165.12 l 25
 599.64 45.1201 l 25
 474.84 1.91992 l 25
 434.52 49.9199 l 17
 434.52 49.9199 392.28 0 283.8 0.959961 c 0
 157.085 2.08105 117.72 119.04 117.72 120.96 c 9
 117.72 478.08 l 17
EndSplineSet
EndChar

StartChar: uni0052
Encoding: 82 82 26
Width: 609
VWidth: 0
Flags: HW
LayerCount: 2
Fore
SplineSet
339.36 437.76 m 0
 339.36 482.88 l 1
 339.36 528.96 338.4 522.24 260.64 522.24 c 9
 260.64 0 l 25
 122.4 0 l 25
 124.32 667.2 l 25
 218.669 667.2 306.72 667.2 366.24 667.2 c 0
 445.92 667.2 488.16 607.68 488.16 561.6 c 9
 488.16 502.819 488.16 449.28 488.16 410.88 c 0
 488.16 357.12 444 320.64 442.08 320.64 c 0
 434.4 320.64 488.16 308.16 487.2 220.8 c 9
 487.2 0 l 25
 347.04 0 l 25
 347.789 88.7324 348.96 191.04 348.96 227.52 c 0
 348.96 259.2 327.84 291.84 267.36 279.36 c 9
 267.36 398.4 l 17
 303.84 398.4 339.36 395.52 339.36 437.76 c 0
EndSplineSet
EndChar

StartChar: uni0053
Encoding: 83 83 27
Width: 596
VWidth: 0
Flags: HW
LayerCount: 2
Fore
SplineSet
253.96 221.76 m 29
 121.48 221.76 l 29
 121.48 120.96 l 21
 120.52 120.96 131.08 -0.959961 286.6 -0.959961 c 4
 461.32 -0.959961 476.68 132.48 476.68 132.48 c 13
 476.68 294.72 l 21
 474.76 410.88 254.92 389.76 254.92 468.48 c 4
 254.92 468.48 246.28 533.76 299.08 533.76 c 4
 346.12 533.76 345.16 495.36 344.2 495.36 c 13
 344.2 464.64 l 29
 478.6 464.64 l 21
 477.64 464.64 505.478 673.171 302.92 672 c 4
 136.84 671.04 117.64 531.84 117.64 531.84 c 13
 117.64 432 l 21
 117.64 241.92 342.28 337.92 342.28 215.04 c 5
 342.28 214.08 347.08 142.08 291.4 144.96 c 5
 240.52 144.96 253.96 221.76 253.96 221.76 c 29
EndSplineSet
EndChar

StartChar: uni0054
Encoding: 84 84 28
Width: 494
VWidth: 0
InSpiro: 1
Flags: HW
LayerCount: 2
Fore
SplineSet
80.04 667.2 m 1
 433.32 667.2 l 1
 425.64 542.4 l 1
 313.32 540.48 l 1
 310.44 0 l 1
 168.36 0 l 1
 168.36 541.44 l 1
 78.1201 540.48 l 1
 80.04 667.2 l 1
  Spiro
    80.04 667.2 v
    433.32 667.2 v
    425.64 542.4 v
    313.32 540.48 v
    310.44 0 v
    168.36 0 v
    168.36 541.44 v
    78.12 540.48 v
    0 0 z
  EndSpiro
EndSplineSet
EndChar

StartChar: uni0055
Encoding: 85 85 29
Width: 521
VWidth: 0
Flags: HW
LayerCount: 2
Fore
SplineSet
75 668.16 m 29
 75 165.12 l 21
 75 109.44 129.721 0 252.601 0.959961 c 5
 391.801 1.91992 443.641 99.8398 443.641 156.48 c 4
 443.641 156.48 441.298 468.604 439.801 668.16 c 29
 304.44 668.16 l 29
 305.4 181.44 l 21
 292.921 156.48 285.24 141.12 248.761 141.12 c 4
 212.28 141.12 213.24 185.28 213.24 185.28 c 13
 212.28 668.16 l 29
 75 668.16 l 29
EndSplineSet
EndChar

StartChar: uni0056
Encoding: 86 86 30
Width: 624
VWidth: 0
InSpiro: 1
Flags: HW
LayerCount: 2
Fore
SplineSet
82.4404 662.4 m 1
 237.96 662.4 l 1
 314.76 349.44 l 1
 385.8 668.16 l 1
 535.56 668.16 l 1
 378.12 0 l 1
 259.08 0 l 1
 82.4404 662.4 l 1
  Spiro
    82.44 662.4 v
    237.96 662.4 v
    314.76 349.44 v
    385.8 668.16 v
    535.56 668.16 v
    378.12 0 v
    259.08 0 v
    0 0 z
  EndSpiro
EndSplineSet
EndChar

StartChar: uni0057
Encoding: 87 87 31
Width: 916
VWidth: 0
InSpiro: 1
Flags: HW
LayerCount: 2
Fore
SplineSet
76.7598 668.16 m 1
 280.28 0 l 1
 399.32 0 l 1
 466.52 172.8 l 1
 518.36 0 l 1
 650.84 0 l 1
 833.24 663.36 l 1
 691.16 667.2 l 1
 583.64 322.56 l 1
 497.24 665.28 l 1
 428.12 665.28 l 1
 341.72 303.36 l 1
 232.28 668.16 l 1
 76.7598 668.16 l 1
  Spiro
    76.76 668.16 v
    280.28 0 v
    399.32 0 v
    466.52 172.8 v
    518.36 0 v
    650.84 0 v
    833.24 663.36 v
    691.16 667.2 v
    583.64 322.56 v
    497.24 665.28 v
    428.12 665.28 v
    341.72 303.36 v
    232.28 668.16 v
    0 0 z
  EndSpiro
EndSplineSet
EndChar

StartChar: uni0058
Encoding: 88 88 32
Width: 681
VWidth: 0
InSpiro: 1
Flags: HW
LayerCount: 2
Fore
SplineSet
121.16 660.48 m 1
 278.6 660.48 l 1
 343.88 512.64 l 1
 422.6 667.2 l 1
 587.72 666.24 l 1
 422.6 337.92 l 1
 563.72 0 l 1
 397.64 0 l 1
 330.44 161.28 l 1
 255.56 0 l 1
 94.2803 0 l 1
 259.4 337.92 l 1
 121.16 660.48 l 1
  Spiro
    121.16 660.48 v
    278.6 660.48 v
    343.88 512.64 v
    422.6 667.2 v
    587.72 666.24 v
    422.6 337.92 v
    563.72 0 v
    397.64 0 v
    330.44 161.28 v
    255.56 0 v
    94.28 0 v
    259.4 337.92 v
    0 0 z
  EndSpiro
EndSplineSet
EndChar

StartChar: uni0059
Encoding: 89 89 33
Width: 627
VWidth: 0
InSpiro: 1
Flags: HW
LayerCount: 2
Fore
SplineSet
55.04 666.24 m 1
 218.24 668.16 l 1
 314.24 489.6 l 1
 408.32 668.16 l 1
 567.68 662.4 l 1
 387.2 341.76 l 1
 387.2 0 l 1
 237.44 0 l 1
 237.44 343.68 l 1
 55.04 666.24 l 1
  Spiro
    55.04 666.24 v
    218.24 668.16 v
    314.24 489.6 v
    408.32 668.16 v
    567.68 662.4 v
    387.2 341.76 v
    387.2 0 v
    237.44 0 v
    237.44 343.68 v
    0 0 z
  EndSpiro
EndSplineSet
EndChar

StartChar: uni005A
Encoding: 90 90 34
Width: 594
VWidth: 0
InSpiro: 1
Flags: HW
LayerCount: 2
Fore
SplineSet
138.64 670.08 m 1
 123.28 556.8 l 1
 321.04 551.04 l 1
 114.64 111.36 l 1
 104.08 0 l 1
 463.12 0 l 1
 466.96 144 l 1
 283.6 148.8 l 1
 480.4 551.04 l 1
 482.32 670.08 l 1
 138.64 670.08 l 1
  Spiro
    138.64 670.08 v
    123.28 556.8 v
    321.04 551.04 v
    114.64 111.36 v
    104.08 0 v
    463.12 0 v
    466.96 144 v
    283.6 148.8 v
    480.4 551.04 v
    482.32 670.08 v
    0 0 z
  EndSpiro
EndSplineSet
EndChar

StartChar: bracketleft
Encoding: 91 91 100
Width: 366
Flags: HW
LayerCount: 2
Fore
SplineSet
269.332 616.863 m 4
 265.381 616.238 260.989 615.205 256.154 613.764 c 4
 251.32 612.323 246.886 609.428 242.85 605.076 c 4
 238.814 600.725 235.473 594.12 232.826 585.264 c 4
 230.179 576.407 228.737 564.198 228.503 548.637 c 4
 226.018 199.955 l 4
 226.441 184.497 227.851 172.402 230.246 163.67 c 4
 232.642 154.937 235.902 148.197 240.029 143.451 c 4
 244.156 138.705 248.681 135.709 253.603 134.464 c 4
 258.524 133.219 263.065 132.25 267.225 131.559 c 4
 268.607 -43.3789 l 4
 234.57 -37.2949 203.806 -26.3057 176.314 -10.4102 c 4
 164.527 -4.17773 153 3.61523 141.731 12.9678 c 4
 130.463 22.3193 120.441 33.3887 111.667 46.1729 c 4
 102.892 58.958 95.8584 73.5371 90.5645 89.9102 c 4
 85.2715 106.284 82.707 124.608 82.8701 144.884 c 4
 84.373 371.914 l 4
 84.8018 455.51 l 4
 84.8965 528.423 l 4
 85.3135 580.124 l 4
 85.7197 599.932 l 4
 85.7793 620.865 88.5605 639.53 94.0635 655.927 c 4
 99.5664 672.322 106.725 686.787 115.539 699.32 c 4
 124.354 711.854 134.278 722.706 145.312 731.879 c 4
 156.347 741.051 167.426 748.881 178.548 755.367 c 4
 205.192 770.387 235.635 780.608 269.875 786.031 c 4
 269.332 616.863 l 4
EndSplineSet
EndChar

StartChar: backslash
Encoding: 92 92 82
Width: 1000
VWidth: 0
Flags: HW
LayerCount: 2
Fore
SplineSet
50 684 m 5
 307 -1 l 5
 453 1 l 5
 192 684 l 5
 50 684 l 5
EndSplineSet
EndChar

StartChar: bracketright
Encoding: 93 93 101
Width: 366
Flags: HW
LayerCount: 2
Fore
SplineSet
83.4131 616.863 m 0
 87.3643 616.238 91.7559 615.205 96.5908 613.764 c 0
 101.425 612.323 105.859 609.428 109.896 605.076 c 0
 113.931 600.725 117.272 594.12 119.919 585.264 c 0
 122.566 576.407 124.008 564.198 124.242 548.637 c 0
 126.728 199.955 l 0
 126.304 184.497 124.895 172.402 122.499 163.67 c 0
 120.104 154.937 116.843 148.197 112.716 143.451 c 0
 108.589 138.705 104.064 135.709 99.1426 134.464 c 0
 94.2207 133.219 89.6797 132.25 85.5205 131.559 c 0
 84.1377 -43.3789 l 0
 118.175 -37.2949 148.939 -26.3057 176.431 -10.4102 c 0
 188.218 -4.17773 199.745 3.61523 211.014 12.9678 c 0
 222.282 22.3193 232.304 33.3887 241.078 46.1729 c 0
 249.854 58.958 256.887 73.5371 262.181 89.9102 c 0
 267.474 106.284 270.038 124.608 269.875 144.884 c 0
 268.372 371.914 l 0
 267.943 455.51 l 0
 267.849 528.423 l 0
 267.432 580.124 l 0
 267.025 599.932 l 0
 266.966 620.865 264.185 639.53 258.682 655.927 c 0
 253.179 672.322 246.021 686.787 237.206 699.32 c 0
 228.391 711.854 218.467 722.706 207.433 731.879 c 0
 196.398 741.051 185.319 748.881 174.197 755.367 c 0
 147.553 770.387 117.11 780.608 82.8701 786.031 c 0
 83.4131 616.863 l 0
EndSplineSet
EndChar

StartChar: asciicircum
Encoding: 94 94 92
Width: 584
VWidth: 0
Flags: HW
LayerCount: 2
Fore
SplineSet
298.5 676 m 1
 376.5 639 l 1
 419.5 719 l 1
 299.5 770 l 5
 171.5 719 l 1
 214.5 639 l 1
 298.5 676 l 1
EndSplineSet
EndChar

StartChar: underscore
Encoding: 95 95 111
Width: 1000
VWidth: 0
Flags: H
LayerCount: 2
Fore
SplineSet
76 -21 m 1
 650 -21 l 5
 651 -162 l 5
 76 -162 l 1
 76 -21 l 1
EndSplineSet
EndChar

StartChar: uni0061
Encoding: 97 97 35
Width: 467
VWidth: 0
InSpiro: 1
Flags: HW
LayerCount: 2
Fore
SplineSet
19.6715 0 m 1
 154.992 501.399 l 1
 290.313 498.55 l 1
 447 0 l 1
 315.953 0 l 1
 226.214 247.851 l 1
 204.847 162.385 l 1
 241.853 160.961 l 1
 267.493 84.0414 l 1
 174.934 81.1925 l 1
 152.143 0 l 1
 19.6715 0 l 1
  Spiro
    19.6715 0 v
    154.992 501.399 v
    290.313 498.55 v
    447 0 v
    315.953 0 v
    226.214 247.851 v
    204.847 162.385 v
    241.853 160.961 v
    267.493 84.0414 v
    174.934 81.1925 v
    152.143 0 v
    0 0 z
  EndSpiro
EndSplineSet
EndChar

StartChar: uni0062
Encoding: 98 98 36
Width: 569
VWidth: 0
Flags: HW
LayerCount: 2
Fore
SplineSet
247.166 502.824 m 25
 124.664 502.824 l 25
 126.089 0 l 25
 345.451 0 l 17
 381.062 0 448.01 22.792 448.01 95.4365 c 0
 448.01 213.664 l 1
 448.01 263.52 408.125 287.734 408.125 287.734 c 0
 408.125 287.734 445.161 323.346 445.161 388.869 c 0
 445.161 499.976 349.725 502.824 349.725 502.824 c 9
 257.137 502.824 l 25
 257.137 388.869 l 17
 282.776 388.869 308.416 393.143 308.416 363.229 c 1
 309.84 321.922 289.346 335.039 257.137 329.044 c 9
 257.137 200.845 l 17
 281.352 200.845 316.962 209.391 316.962 169.507 c 0
 316.962 129.623 272.805 138.17 247.166 138.17 c 9
 247.166 502.824 l 25
EndSplineSet
EndChar

StartChar: uni0063
Encoding: 99 99 37
Width: 568
VWidth: 0
Flags: HW
LayerCount: 2
Fore
SplineSet
450.505 316.224 m 21
 450.505 316.224 459.031 505.583 280.998 502.824 c 4
 97.2471 499.976 115.764 307.677 115.764 307.677 c 13
 118.613 146.717 l 21
 118.613 146.717 131.434 0 263.905 0 c 4
 467.599 0 449.081 202.269 449.081 202.269 c 13
 316.609 200.845 l 21
 316.609 168.083 319.458 135.321 279.573 135.321 c 5
 242.539 135.321 243.963 179.479 243.963 179.479 c 13
 243.963 341.863 l 21
 243.963 341.863 243.963 380.322 278.149 380.322 c 5
 315.185 380.322 316.609 347.561 316.609 310.525 c 13
 450.505 316.224 l 21
EndSplineSet
EndChar

StartChar: uni0064
Encoding: 100 100 38
Width: 584
VWidth: 0
Flags: HW
LayerCount: 2
Fore
SplineSet
123.968 497.127 m 25
 126.816 0 l 25
 279.23 0 l 17
 350.453 0 457.285 -11.3955 458.709 142.443 c 1
 463.694 346.849 l 1
 464.407 437.3 451.587 501.399 270.685 501.399 c 1
 267.836 368.927 l 17
 326.237 368.927 336.209 370.352 336.209 310.525 c 1
 336.209 243.578 331.936 199.42 331.936 199.42 c 17
 326.237 123.213 297.036 138.17 256.44 142.443 c 0
 255.021 142.593 260.001 501.399 260.714 501.399 c 9
 123.968 497.127 l 25
EndSplineSet
EndChar

StartChar: uni0065
Encoding: 101 101 39
Width: 372
VWidth: 0
InSpiro: 1
Flags: HW
LayerCount: 2
Fore
SplineSet
70 498.551 m 1
 72.8486 2.84863 l 1
 306.455 -1.4248 l 1
 307.879 106.832 l 1
 198.199 106.832 l 1
 198.199 193.723 l 1
 307.879 197.995 l 1
 307.879 300.555 l 1
 198.199 300.555 l 1
 198.199 395.991 l 1
 307.879 395.991 l 1
 307.879 502.824 l 1
 70 498.551 l 1
  Spiro
    70 498.55 v
    72.849 2.84886 v
    306.455 -1.42443 v
    307.879 106.832 v
    198.198 106.832 v
    198.198 193.722 v
    307.879 197.996 v
    307.879 300.555 v
    198.198 300.555 v
    198.198 395.992 v
    307.879 395.992 v
    307.879 502.824 v
    0 0 z
  EndSpiro
EndSplineSet
EndChar

StartChar: uni0066
Encoding: 102 102 40
Width: 489
VWidth: 0
InSpiro: 1
Flags: HW
LayerCount: 2
Fore
SplineSet
124.654 501.399 m 1
 127.503 0 l 1
 271.37 0 l 1
 267.097 200.845 l 1
 365.382 205.117 l 1
 368.23 317.648 l 1
 262.823 313.375 l 1
 261.398 388.869 l 1
 369.655 391.718 l 1
 371.08 501.399 l 1
 124.654 501.399 l 1
  Spiro
    124.654 501.399 v
    127.503 0 v
    271.37 0 v
    267.097 200.845 v
    365.382 205.118 v
    368.231 317.648 v
    262.823 313.375 v
    261.399 388.869 v
    369.656 391.718 v
    371.08 501.399 v
    0 0 z
  EndSpiro
EndSplineSet
EndChar

StartChar: uni0067
Encoding: 103 103 41
Width: 527
VWidth: 0
Flags: HW
LayerCount: 2
Fore
SplineSet
119.285 380.769 m 25
 119.285 124.305 l 17
 119.285 124.305 119.285 -1.01172 244.603 -1.01172 c 0
 407.807 -1.01172 403.437 115.562 403.437 116.29 c 9
 404.165 239.424 l 25
 267.918 239.424 l 25
 267.918 160.733 l 25
 297.062 160.733 l 17
 297.062 158.548 304.349 100.99 262.088 100.99 c 0
 228.544 100.99 228.573 143.248 228.573 143.248 c 9
 228.573 355.998 l 17
 229.302 355.998 225.659 398.255 260.632 398.255 c 0
 302.891 398.255 294.876 332.683 295.605 332.683 c 9
 407.08 327.583 l 17
 407.08 328.312 432.582 500.987 262.818 500.987 c 1
 119.285 500.987 119.285 380.769 119.285 380.769 c 25
EndSplineSet
EndChar

StartChar: uni0068
Encoding: 104 104 42
Width: 572
VWidth: 0
InSpiro: 1
Flags: HW
LayerCount: 2
Fore
SplineSet
124.632 498.551 m 1
 124.632 0 l 1
 249.981 0 l 1
 249.981 233.606 l 1
 314.081 235.031 l 1
 322.628 0 l 1
 445.129 0 l 1
 445.129 497.127 l 1
 328.325 498.551 l 1
 326.901 361.805 l 1
 261.378 360.381 l 1
 259.953 501.399 l 1
 124.632 498.551 l 1
  Spiro
    124.632 498.55 v
    124.632 0 v
    249.982 0 v
    249.982 233.607 v
    314.081 235.031 v
    322.628 0 v
    445.129 0 v
    445.129 497.126 v
    328.326 498.55 v
    326.901 361.805 v
    261.378 360.381 v
    259.953 501.399 v
    0 0 z
  EndSpiro
EndSplineSet
EndChar

StartChar: uni0069
Encoding: 105 105 43
Width: 374
VWidth: 0
InSpiro: 1
Flags: HW
LayerCount: 2
Fore
SplineSet
126.432 497.127 m 1
 123.582 1.4248 l 1
 248.933 0 l 1
 247.509 499.976 l 1
 126.432 497.127 l 1
  Spiro
    126.432 497.126 v
    123.583 1.42443 v
    248.933 0 v
    247.508 499.975 v
    0 0 z
  EndSpiro
EndSplineSet
EndChar

StartChar: uni006A
Encoding: 106 106 44
Width: 559
VWidth: 0
Flags: HW
LayerCount: 2
Fore
SplineSet
438.05 505.673 m 9
 297.031 504.248 l 17
 305.578 168.083 302.729 145.292 261.421 145.292 c 1
 210.141 145.292 228.658 273.49 228.658 273.49 c 25
 114.704 267.793 l 17
 114.704 267.793 59.1523 0 262.846 0 c 0
 466.538 0 426.654 172.356 438.05 505.673 c 9
EndSplineSet
EndChar

StartChar: uni006B
Encoding: 107 107 45
Width: 566
VWidth: 0
Flags: HW
LayerCount: 2
Fore
SplineSet
124.322 501.737 m 1
 124.322 -1.79297 l 1
 230.179 -1.79297 l 1
 236.617 204.198 l 1
 323.16 -1.79297 l 1
 441.891 -1.79297 l 1
 326.021 291.455 l 1
 447.611 418.769 l 1
 379.664 508.891 l 1
 234.471 359.403 l 1
 234.471 504.599 l 1
 124.322 501.737 l 1
EndSplineSet
EndChar

StartChar: uni006C
Encoding: 108 108 46
Width: 479
VWidth: 0
InSpiro: 1
Flags: HW
LayerCount: 2
Fore
SplineSet
126.432 498.551 m 1
 123.582 0 l 1
 364.312 2.84863 l 1
 368.585 136.746 l 1
 254.631 135.321 l 1
 256.055 498.551 l 1
 126.432 498.551 l 1
  Spiro
    126.432 498.55 v
    123.583 0 v
    364.311 2.84886 v
    368.585 136.745 v
    254.63 135.321 v
    256.055 498.55 v
    0 0 z
  EndSpiro
EndSplineSet
EndChar

StartChar: uni006D
Encoding: 109 109 47
Width: 633
VWidth: 0
InSpiro: 1
Flags: HW
LayerCount: 2
Fore
SplineSet
126.078 499.976 m 1
 124.654 0 l 1
 254.276 0 l 1
 252.853 267.793 l 1
 319.801 213.664 l 1
 372.504 270.642 l 1
 382.475 0 l 1
 509.25 2.84863 l 1
 503.553 501.399 l 1
 372.504 501.399 l 1
 318.377 398.84 l 1
 250.004 499.976 l 1
 126.078 499.976 l 1
  Spiro
    126.078 499.975 v
    124.654 0 v
    254.277 0 v
    252.852 267.793 v
    319.801 213.664 v
    372.504 270.642 v
    382.475 0 v
    509.25 2.84886 v
    503.552 501.399 v
    372.504 501.399 v
    318.376 398.84 v
    250.004 499.975 v
    0 0 z
  EndSpiro
EndSplineSet
EndChar

StartChar: uni006E
Encoding: 110 110 48
Width: 593
VWidth: 0
InSpiro: 1
Flags: HW
LayerCount: 2
Fore
SplineSet
124.654 498.551 m 1
 127.503 0 l 1
 264.248 0 l 1
 259.975 253.549 l 1
 329.771 176.629 l 1
 335.47 0 l 1
 467.941 0 l 1
 465.092 499.976 l 1
 328.348 499.976 l 1
 326.923 380.322 l 1
 227.213 499.976 l 1
 124.654 498.551 l 1
  Spiro
    124.654 498.55 v
    127.503 0 v
    264.248 0 v
    259.975 253.549 v
    329.772 176.629 v
    335.469 0 v
    467.941 0 v
    465.092 499.975 v
    328.347 499.975 v
    326.923 380.323 v
    227.213 499.975 v
    0 0 z
  EndSpiro
EndSplineSet
EndChar

StartChar: uni006F
Encoding: 111 111 49
Width: 430
VWidth: 0
Flags: HW
LayerCount: 2
Fore
SplineSet
239.133 505.673 m 1
 239.133 505.673 39.5908 545.557 39.5908 272.066 c 0
 39.5908 29.9131 146.423 -9.9707 213.371 -5.69727 c 0
 308.657 0.383789 390 37.0361 390 246.427 c 1
 390 354.683 384.304 475.76 256.104 505.673 c 9
 256.104 141.019 l 17
 256.104 141.019 246.133 122.501 219.068 122.501 c 0
 182.034 122.501 184.883 148.141 184.883 148.141 c 9
 184.883 347.561 l 17
 184.883 346.137 187.731 381.747 214.795 381.747 c 0
 233.667 381.747 239 373.333 239.133 373.2 c 1
 239.133 505.673 l 1
EndSplineSet
EndChar

StartChar: uni0070
Encoding: 112 112 50
Width: 562
VWidth: 0
Flags: HW
HStem: 216.513 96.8612<264.719 323.007>
VStem: 130.726 133.896<4.29163 8.54658 176.629 216.488 381.747 390.294>
LayerCount: 2
Fore
SplineSet
257.5 395.991 m 9
 256.076 321.922 l 25
 256.076 321.922 317.326 309.101 317.326 367.503 c 0
 317.326 405.963 294.536 395.991 257.5 395.991 c 9
126.453 498.551 m 17
 377.153 498.551 448.374 537.01 448.374 358.956 c 1
 448.374 217.938 344.391 223.635 256.076 223.635 c 9
 260.349 0 l 25
 123.604 0 l 25
 126.453 498.551 l 17
EndSplineSet
EndChar

StartChar: uni0071
Encoding: 113 113 51
Width: 617
VWidth: 0
Flags: HW
LayerCount: 2
Fore
SplineSet
513.181 72.6465 m 9
 404.924 24.2158 l 25
 363.615 52.7041 l 17
 363.615 52.7041 320.862 4.60938 242.539 2.84863 c 0
 115.764 0 118.613 128.198 117.188 128.198 c 1
 118.613 358.956 l 0
 118.613 357.532 131.434 507.098 285.271 507.098 c 0
 457.627 507.098 423.441 297.705 423.441 153.839 c 1
 380.708 172.356 359.342 170.22 309.487 166.658 c 1
 306.638 330.468 l 0
 306.638 330.468 303.789 364.654 280.998 364.654 c 0
 255.358 364.654 255.358 333.316 255.358 333.316 c 9
 252.51 152.414 l 17
 323.731 164.521 383.951 167.898 423.441 146.005 c 1
 424.318 145.51 513.893 71.9336 513.181 72.6465 c 9
EndSplineSet
EndChar

StartChar: uni0072
Encoding: 114 114 52
Width: 553
VWidth: 0
Flags: HW
LayerCount: 2
Fore
SplineSet
303.757 353.259 m 5
 303.757 394.566 291.649 390.293 246.78 390.293 c 13
 246.78 321.922 l 21
 277.405 321.922 303.757 315.512 303.757 353.259 c 5
393.496 254.973 m 5
 393.496 254.261 431.956 224.349 431.956 188.737 c 13
 431.956 0 l 29
 313.728 0 l 29
 313.451 68.0518 313.016 123.213 313.016 174.493 c 4
 313.016 217.463 285.239 210.815 245.355 210.815 c 13
 245.355 0 l 29
 124.278 0 l 29
 124.278 499.976 l 29
 198.72 499.976 216.866 499.976 315.152 499.976 c 4
 413.438 499.976 431.956 410.948 431.956 368.927 c 5
 431.956 279.9 393.496 254.973 393.496 254.973 c 5
EndSplineSet
EndChar

StartChar: uni0073
Encoding: 115 115 53
Width: 561
VWidth: 0
Flags: HW
LayerCount: 2
Fore
SplineSet
118.613 377.474 m 9
 118.613 293.433 l 17
 118.613 215.089 302.364 229.334 302.364 162.385 c 0
 302.364 162.385 308.062 125.35 271.027 125.35 c 0
 219.748 125.35 228.295 175.205 228.295 175.205 c 9
 118.613 175.205 l 17
 118.613 175.205 88.7002 0 280.998 0 c 0
 466.174 0 439.11 168.083 439.11 168.083 c 0
 439.11 293.433 246.812 280.612 246.812 341.863 c 0
 246.812 341.863 242.539 377.474 288.12 377.474 c 0
 325.156 377.474 320.883 331.893 320.883 331.893 c 9
 440.534 327.619 l 17
 440.534 327.619 460.477 499.976 273.876 499.976 c 0
 137.131 499.976 118.613 377.474 118.613 377.474 c 9
EndSplineSet
EndChar

StartChar: uni0074
Encoding: 116 116 54
Width: 561
VWidth: 0
InSpiro: 1
Flags: HW
LayerCount: 2
Fore
SplineSet
111.845 498.551 m 1
 113.269 373.2 l 1
 211.555 371.776 l 1
 217.252 0 l 1
 361.12 5.69727 l 1
 353.998 378.898 l 1
 445.161 384.596 l 1
 442.312 504.248 l 1
 111.845 498.551 l 1
  Spiro
    111.845 498.55 v
    113.269 373.201 v
    211.555 371.776 v
    217.252 0 v
    361.12 5.69772 v
    353.998 378.898 v
    445.161 384.596 v
    442.312 504.248 v
    0 0 z
  EndSpiro
EndSplineSet
EndChar

StartChar: uni0075
Encoding: 117 117 55
Width: 567
VWidth: 0
Flags: HW
LayerCount: 2
Fore
SplineSet
128.231 499.976 m 25
 119.685 237.88 l 17
 119.685 170.932 105.44 0 276.371 0 c 0
 457.273 0 443.029 149.565 443.029 196.571 c 9
 443.029 499.976 l 25
 321.953 499.976 l 25
 321.953 180.902 l 17
 321.953 180.902 330.5 126.773 284.918 126.773 c 0
 239.336 126.773 249.308 195.146 249.308 223.635 c 9
 255.005 499.976 l 25
 128.231 499.976 l 25
EndSplineSet
EndChar

StartChar: uni0076
Encoding: 118 118 56
Width: 633
VWidth: 0
InSpiro: 1
Flags: HW
LayerCount: 2
Fore
SplineSet
107.571 498.551 m 1
 259.985 0 l 1
 376.788 0 l 1
 524.93 491.429 l 1
 389.608 494.277 l 1
 318.387 282.037 l 1
 250.015 498.551 l 1
 107.571 498.551 l 1
  Spiro
    107.571 498.55 v
    259.985 0 v
    376.788 0 v
    524.929 491.428 v
    389.608 494.277 v
    318.387 282.037 v
    250.014 498.55 v
    0 0 z
  EndSpiro
EndSplineSet
EndChar

StartChar: uni0077
Encoding: 119 119 57
Width: 832
VWidth: 0
InSpiro: 1
Flags: HW
LayerCount: 2
Fore
SplineSet
109.703 498.551 m 1
 230.779 0 l 1
 353.279 0 l 1
 401.711 155.263 l 1
 437.321 0 l 1
 558.398 0 l 1
 723.632 499.976 l 1
 595.433 501.399 l 1
 512.816 303.403 l 1
 464.386 499.976 l 1
 371.798 498.551 l 1
 297.728 307.677 l 1
 243.599 498.551 l 1
 109.703 498.551 l 1
  Spiro
    109.703 498.55 v
    230.779 0 v
    353.28 0 v
    401.711 155.263 v
    437.321 0 v
    558.398 0 v
    723.632 499.975 v
    595.433 501.399 v
    512.816 303.404 v
    464.386 499.975 v
    371.798 498.55 v
    297.727 307.677 v
    243.599 498.55 v
    0 0 z
  EndSpiro
EndSplineSet
EndChar

StartChar: uni0078
Encoding: 120 120 58
Width: 632
VWidth: 0
InSpiro: 1
Flags: HW
LayerCount: 2
Fore
SplineSet
117.222 499.976 m 1
 253.966 499.976 l 1
 312.368 390.293 l 1
 377.892 499.976 l 1
 503.241 499.976 l 1
 377.892 257.822 l 1
 518.91 0 l 1
 367.92 0 l 1
 312.368 125.35 l 1
 251.117 0 l 1
 122.919 0 l 1
 248.269 242.153 l 1
 117.222 499.976 l 1
  Spiro
    117.221 499.975 v
    253.966 499.975 v
    312.368 390.294 v
    377.892 499.975 v
    503.241 499.975 v
    377.892 257.822 v
    518.91 0 v
    367.921 0 v
    312.368 125.35 v
    251.117 0 v
    122.919 0 v
    248.268 242.153 v
    0 0 z
  EndSpiro
EndSplineSet
EndChar

StartChar: y
Encoding: 121 121 59
Width: 488
VWidth: 0
InSpiro: 1
Flags: HW
LayerCount: 2
Fore
SplineSet
186.66 502.824 m 1
 233.667 381.747 l 1
 306.312 501.399 l 1
 463 499.976 l 1
 302.039 232.183 l 1
 299.189 0 l 1
 155.322 0 l 1
 161.02 240.729 l 1
 29.9727 495.702 l 1
 186.66 502.824 l 1
  Spiro
    186.66 502.824 v
    233.666 381.747 v
    306.312 501.399 v
    462.999 499.975 v
    302.039 232.182 v
    299.19 0 v
    155.323 0 v
    161.02 240.729 v
    29.9729 495.702 v
    0 0 z
  EndSpiro
EndSplineSet
EndChar

StartChar: z
Encoding: 122 122 60
Width: 542
VWidth: 0
InSpiro: 1
Flags: HW
LayerCount: 2
Fore
SplineSet
133.2 502.824 m 1
 127.503 373.2 l 1
 269.945 380.322 l 1
 124.654 125.35 l 1
 118.955 0 l 1
 413.813 7.12207 l 1
 416.662 123.925 l 1
 292.736 111.105 l 1
 415.237 351.834 l 1
 418.086 501.399 l 1
 133.2 502.824 l 1
  Spiro
    133.2 502.824 v
    127.503 373.201 v
    269.946 380.323 v
    124.654 125.35 v
    118.956 0 v
    413.813 7.12215 v
    416.662 123.925 v
    292.736 111.106 v
    415.237 351.834 v
    418.086 501.399 v
    0 0 z
  EndSpiro
EndSplineSet
EndChar

StartChar: braceleft
Encoding: 123 123 126
Width: 426
VWidth: 0
Flags: HW
LayerCount: 2
Fore
SplineSet
262.542 519.249 m 2
 262.235 508.4 259.702 496.693 254.942 484.127 c 0
 250.184 471.562 244.081 458.951 236.635 446.298 c 0
 229.189 433.644 220.704 421.163 211.18 408.854 c 0
 201.654 396.546 191.644 385.174 181.146 374.736 c 1
 208.64 338.592 l 1
 235.301 301.304 l 1
 254.917 266.949 l 1
 262.104 240.751 l 1
 261.483 231.878 261.071 224.895 260.865 219.8 c 0
 260.66 214.705 260.567 209.965 260.587 205.581 c 2
 260.645 192.428 l 1
 260.576 173.687 l 2
 260.967 154.174 266.623 138.702 277.546 127.27 c 0
 288.469 115.838 299.667 107.993 311.141 103.735 c 1
 314.334 -50.666 l 1
 281.06 -45.1367 250.729 -34.7539 223.341 -19.5166 c 0
 199.663 -6.39258 177.594 12.5547 157.134 37.3262 c 0
 136.674 62.0967 124.856 95.1553 121.683 136.501 c 0
 121.436 146.587 121.569 156.395 122.085 165.926 c 2
 122.359 189.763 l 1
 123.26 209.648 l 1
 123.012 219.733 119.488 231.325 112.689 244.423 c 0
 105.89 257.521 97.748 270.574 88.2627 283.584 c 0
 78.7773 296.594 68.5215 309.144 57.4941 321.234 c 0
 46.4668 333.324 36.2725 343.354 26.9111 351.32 c 1
 34.4277 359.261 43.6074 369.489 54.4492 382.006 c 0
 65.292 394.522 75.8125 408.001 86.0127 422.441 c 0
 96.2129 436.882 104.905 451.252 112.09 465.552 c 0
 119.274 479.852 123.298 492.807 124.158 504.418 c 1
 124.22 593.524 l 2
 124.279 614.458 127.061 633.123 132.563 649.52 c 0
 138.066 665.915 145.198 680.545 153.961 693.407 c 0
 162.724 706.27 172.761 717.478 184.071 727.031 c 0
 195.383 736.585 207.206 745.039 219.541 752.393 c 0
 247.295 768.938 279.175 780.736 315.182 787.789 c 1
 312.185 640.507 l 1
 303.383 636.413 293.423 627.917 282.304 615.02 c 0
 271.185 602.121 264.33 584.667 261.741 562.658 c 1
 262.27 546.542 l 1
 262.562 531.907 l 1
 262.542 519.249 l 2
EndSplineSet
EndChar

StartChar: bar
Encoding: 124 124 109
Width: 220
VWidth: 0
Flags: HW
LayerCount: 2
Fore
SplineSet
180 697 m 1
 181 0 l 1
 39 0 l 1
 40 697 l 1
 180 697 l 1
EndSplineSet
EndChar

StartChar: braceright
Encoding: 125 125 127
Width: 1000
VWidth: 0
Flags: HW
LayerCount: 2
Fore
SplineSet
79.5508 519.249 m 2
 79.8574 508.4 82.3906 496.693 87.1504 484.127 c 0
 91.9092 471.562 98.0117 458.951 105.458 446.298 c 0
 112.903 433.644 121.389 421.163 130.913 408.854 c 0
 140.438 396.546 150.449 385.174 160.946 374.736 c 1
 133.453 338.592 l 1
 106.792 301.304 l 1
 87.1758 266.949 l 1
 79.9893 240.751 l 1
 80.6094 231.878 81.0215 224.895 81.2275 219.8 c 0
 81.4326 214.705 81.5254 209.965 81.5059 205.581 c 2
 81.4482 192.428 l 1
 81.5166 173.687 l 2
 81.126 154.174 75.4697 138.702 64.5469 127.27 c 0
 53.624 115.838 42.4258 107.993 30.9521 103.735 c 1
 27.7588 -50.666 l 1
 61.0332 -45.1367 91.3643 -34.7539 118.752 -19.5166 c 0
 142.43 -6.39258 164.499 12.5547 184.959 37.3262 c 0
 205.419 62.0967 217.236 95.1553 220.41 136.501 c 0
 220.657 146.587 220.523 156.395 220.008 165.926 c 2
 219.733 189.763 l 1
 218.833 209.648 l 1
 219.081 219.733 222.604 231.325 229.403 244.423 c 0
 236.203 257.521 244.345 270.574 253.83 283.584 c 0
 263.315 296.594 273.571 309.144 284.599 321.234 c 0
 295.626 333.324 305.82 343.354 315.182 351.32 c 1
 307.665 359.261 298.485 369.489 287.644 382.006 c 0
 276.801 394.522 266.28 408.001 256.08 422.441 c 0
 245.88 436.882 237.188 451.252 230.003 465.552 c 0
 222.818 479.852 218.795 492.807 217.935 504.418 c 1
 217.873 593.524 l 2
 217.813 614.458 215.032 633.123 209.529 649.52 c 0
 204.026 665.915 196.895 680.545 188.132 693.407 c 0
 179.369 706.27 169.332 717.478 158.021 727.031 c 0
 146.71 736.585 134.887 745.039 122.552 752.393 c 0
 94.7979 768.938 62.918 780.736 26.9111 787.789 c 1
 29.9082 640.507 l 1
 38.71 636.413 48.6699 627.917 59.7891 615.02 c 0
 70.9082 602.121 77.7627 584.667 80.3516 562.658 c 1
 79.8232 546.542 l 1
 79.5303 531.907 l 1
 79.5508 519.249 l 2
EndSplineSet
EndChar

StartChar: asciitilde
Encoding: 126 126 75
Width: 452
VWidth: 0
Flags: HW
LayerCount: 2
Fore
SplineSet
75 259 m 1
 81 263 89.1667 266.5 99.5 269.5 c 0
 109.833 272.5 120.167 275 130.5 277 c 0
 140.833 279 150.333 280.5 159 281.5 c 0
 167.667 282.5 173.333 283 176 283 c 0
 189.333 283 202.833 281.667 216.5 279 c 0
 230.167 276.333 244 273.333 258 270 c 0
 272 266.667 286.333 263.667 301 261 c 0
 315.667 258.333 330.667 257 346 257 c 0
 359.333 257 370.167 259.667 378.5 265 c 0
 386.833 270.333 394.667 275 402 279 c 1
 380 147 l 1
 355 138 l 1
 334 132.5 l 1
 317 130 l 1
 305 130 292.333 131.5 279 134.5 c 0
 265.667 137.5 251.833 141 237.5 145 c 0
 223.167 149 208.5 152.5 193.5 155.5 c 0
 178.5 158.5 164 160 150 160 c 0
 136 160 123.167 158.667 111.5 156 c 0
 99.8333 153.333 89.6667 150.333 81 147 c 0
 71 143 62 138.667 54 134 c 1
 75 259 l 1
EndSplineSet
EndChar

StartChar: exclamdown
Encoding: 161 161 114
Width: 1000
VWidth: 0
Flags: HW
LayerCount: 2
Fore
SplineSet
219 0 m 1
 219 481 l 1
 76 481 l 1
 77 0 l 1
 219 0 l 1
218 532 m 1
 218 666 l 1
 77 666 l 1
 77 532 l 1
 218 532 l 1
EndSplineSet
EndChar

StartChar: sterling
Encoding: 163 163 122
Width: 590
VWidth: 0
Flags: HW
LayerCount: 2
Fore
SplineSet
240.131 436 m 1
 308.16 436 l 1
 308 315 l 1
 239.404 314.575 l 1
 239.173 288 l 1
 308.16 288 l 1
 308 167 l 1
 238.446 166.572 l 1
 238.279 126.72 l 1
 500 126.72 l 1
 500 0 l 1
 103.88 0 l 1
 103.88 166.197 l 1
 33 166 l 1
 33 288 l 1
 103.88 288 l 1
 103.88 314.197 l 1
 33 314 l 1
 33 436 l 1
 103.88 436 l 1
 103.88 485.76 l 2
 103.88 537.601 126.92 668.16 292.04 668.16 c 0
 448 668.16 468.68 516 468.68 516 c 1
 332.359 484.16 l 1
 332.359 484.16 328.497 517.772 292.04 516.48 c 1
 242 516.48 240.075 489.493 240.131 436 c 1
EndSplineSet
EndChar

StartChar: currency
Encoding: 164 164 123
Width: 476
VWidth: 0
Flags: HW
LayerCount: 2
Fore
SplineSet
418.897 119.32 m 1
 418.897 119.32 374 0 227.857 0 c 0
 59.8547 0 59.8574 163.2 59.8574 163.2 c 1
 60.1821 225.214 l 1
 5 225 l 1
 5 324 l 1
 60.6992 324 l 1
 60.8103 345.216 l 1
 5 345 l 1
 5 444 l 1
 61.3275 444 l 1
 61.7773 529.92 l 2
 61.7773 528.74 71.3779 668.16 244.178 668.16 c 1
 408 666 418 540 418 540 c 1
 290.258 491.52 l 1
 290.258 491.52 294.098 534.72 240.338 534.72 c 0
 193.298 534.72 195.218 466.56 195.218 466.56 c 1
 195.299 444 l 1
 263.16 444 l 1
 263 346 l 1
 195.653 345.739 l 1
 195.731 324 l 1
 263.16 324 l 1
 263 226 l 1
 196.084 225.741 l 1
 196.178 199.68 l 1
 196.178 199.68 192.338 137.28 238.418 137.28 c 0
 274 137.28 296.338 156 296.338 185.2 c 1
 418.897 119.32 l 1
EndSplineSet
EndChar

StartChar: yen
Encoding: 165 165 124
Width: 627
VWidth: 0
Flags: HW
LayerCount: 2
Fore
SplineSet
115 342 m 1
 115 464 l 1
 499.16 464 l 1
 499 343 l 1
 115 342 l 1
115 173 m 1
 115 295 l 1
 499.16 295 l 1
 499 174 l 1
 115 173 l 1
55.04 666.24 m 1
 218.24 668.16 l 1
 314.24 489.6 l 1
 408.32 668.16 l 1
 567.68 662.4 l 1
 387.2 341.76 l 1
 387.2 0 l 1
 237.44 0 l 1
 237.44 343.68 l 1
 55.04 666.24 l 1
  Spiro
    55.04 666.24 v
    218.24 668.16 v
    314.24 489.6 v
    408.32 668.16 v
    567.68 662.4 v
    387.2 341.76 v
    387.2 0 v
    237.44 0 v
    237.44 343.68 v
    0 0 z
  EndSpiro
EndSplineSet
EndChar

StartChar: dieresis
Encoding: 168 168 135
Width: 450
VWidth: 0
Flags: HW
LayerCount: 2
Fore
SplineSet
360.2 784.3 m 1
 359.4 666.7 l 1
 239.4 666.7 l 1
 239.4 784.3 l 1
 360.2 784.3 l 1
209.6 784.3 m 1
 208.8 666.7 l 1
 88.7998 666.7 l 1
 88.7998 784.3 l 1
 209.6 784.3 l 1
EndSplineSet
EndChar

StartChar: copyright
Encoding: 169 169 65
Width: 531
VWidth: 0
InSpiro: 1
Flags: HW
LayerCount: 2
Fore
SplineSet
254 663 m 0
 323.639 665.7 392.989 634.512 440.193 583.241 c 0
 487.396 531.97 513.363 462.642 516 393 c 0
 518.801 319.041 495.347 243.504 447.445 187.083 c 0
 423.495 158.873 393.557 135.653 359.91 120.248 c 0
 326.263 104.842 288.971 97.3721 252 99 c 0
 180.561 102.145 112.475 140.56 69.0967 197.409 c 0
 25.7188 254.259 5.73828 327.618 10 399 c 0
 13.916 464.592 38.3545 529.447 81.749 578.789 c 0
 125.143 628.131 188.341 660.454 254 663 c 0
  Spiro
    516 393 o
    252 99 o
    10 399 o
    254 663 o
    0 0 z
  EndSpiro
381.89 423.824 m 1
 382.092 436.862 381.091 449.926 378.77 462.757 c 0
 374.474 486.506 365.208 509.915 348.667 527.489 c 0
 337.606 539.242 323.566 548.06 308.377 553.519 c 0
 293.189 558.977 276.952 561.285 260.813 561.11 c 0
 244.279 560.931 227.697 558.151 212.3 552.122 c 0
 196.903 546.093 182.802 536.59 171.933 524.129 c 0
 155.858 505.699 147.449 481.584 144.212 457.344 c 0
 142.637 445.548 142.191 433.606 142.788 421.72 c 2
 144.824 306.747 l 1
 146.074 297.572 148.017 288.49 150.688 279.624 c 0
 156.353 260.816 165.546 242.703 179.689 229.073 c 0
 188.779 220.313 199.761 213.579 211.581 209.146 c 0
 223.401 204.714 235.991 202.488 248.603 201.95 c 0
 266.767 201.175 285.113 203.756 302.229 209.886 c 0
 319.345 216.016 335.161 225.992 347.501 239.343 c 0
 365.056 258.336 374.959 283.477 378.922 309.035 c 0
 380.838 321.39 381.464 333.94 380.872 346.428 c 1
 286.25 345.41 l 1
 286.595 337.903 286.658 330.353 285.724 322.897 c 0
 284.947 316.691 283.247 310.384 279.304 305.529 c 0
 277.007 302.702 273.976 300.452 270.551 299.212 c 0
 267.126 297.972 263.336 297.753 259.795 298.608 c 1
 256.323 298.346 252.79 298.975 249.616 300.406 c 0
 246.443 301.838 243.646 304.065 241.455 306.771 c 0
 237.956 311.092 236.019 316.507 235.073 321.986 c 0
 234.608 324.681 234.374 327.415 234.359 330.149 c 2
 234.359 446.138 l 2
 234.449 448.528 234.748 450.912 235.261 453.248 c 0
 236.323 458.082 238.333 462.785 241.605 466.499 c 0
 243.73 468.911 246.381 470.869 249.346 472.112 c 0
 252.311 473.354 255.576 473.876 258.779 473.609 c 0
 262.239 474.18 265.848 473.813 269.128 472.571 c 0
 272.407 471.328 275.338 469.218 277.645 466.576 c 0
 282 461.588 284.004 454.96 285.009 448.415 c 0
 286.26 440.271 286.385 431.992 286.25 423.754 c 1
 381.89 423.824 l 1
  Spiro
    381.89 423.824 v
    378.77 462.757 o
    348.667 527.489 o
    260.813 561.11 o
    171.933 524.129 o
    144.212 457.344 o
    142.788 421.72 v
    144.824 306.747 v
    150.688 279.624 o
    179.689 229.073 o
    248.603 201.95 o
    347.501 239.343 o
    378.922 309.035 o
    380.872 346.428 v
    286.25 345.41 v
    285.724 322.897 o
    279.304 305.529 o
    259.795 298.608 v
    241.455 306.771 o
    235.073 321.986 o
    234.359 330.149 v
    234.359 446.138 v
    235.261 453.248 o
    241.605 466.499 o
    258.779 473.609 v
    277.645 466.576 o
    285.009 448.415 o
    286.25 423.754 v
    0 0 z
  EndSpiro
EndSplineSet
EndChar

StartChar: guillemotleft
Encoding: 171 171 92
Width: 1000
VWidth: 0
Flags: HW
LayerCount: 2
Fore
SplineSet
352 0 m 5
 492 0 l 5
 394 195 l 5
 502 399 l 5
 358 399 l 5
 248 211 l 5
 196 211 l 5
 282 400 l 5
 142 400 l 5
 44 196 l 5
 139 0 l 5
 286 0 l 5
 204 174 l 5
 255 174 l 5
 352 0 l 5
EndSplineSet
EndChar

StartChar: uni00AD
Encoding: 173 173 189
Width: 326
VWidth: 0
Flags: HW
LayerCount: 2
Fore
SplineSet
39.8398 120 m 5
 39.8398 229.5 l 5
 286 229.5 l 5
 285.84 121 l 5
 39.8398 120 l 5
EndSplineSet
EndChar

StartChar: registered
Encoding: 174 174 66
Width: 531
VWidth: 0
Flags: HW
LayerCount: 2
Fore
SplineSet
288.715 451.38 m 1
 288.715 424.946 270.262 429.435 248.815 429.435 c 9
 248.815 477.315 l 17
 280.236 477.315 288.715 480.308 288.715 451.38 c 1
351.558 382.553 m 1
 351.558 382.553 378.49 400.009 378.49 462.353 c 1
 378.49 491.778 365.522 554.122 296.695 554.122 c 0
 227.867 554.122 215.159 554.122 163.03 554.122 c 25
 163.03 204 l 25
 247.817 204 l 25
 247.817 351.63 l 17
 275.747 351.63 295.199 356.285 295.199 326.193 c 0
 295.199 290.284 295.503 251.655 295.697 204 c 25
 378.49 204 l 25
 378.49 336.169 l 17
 378.49 361.106 351.558 382.054 351.558 382.553 c 1
254 664 m 0
 323.639 666.7 392.989 635.512 440.193 584.241 c 0
 487.396 532.97 513.363 463.642 516 394 c 0
 518.801 320.041 495.347 244.504 447.445 188.083 c 0
 423.495 159.873 393.557 136.653 359.91 121.248 c 0
 326.263 105.842 288.971 98.3721 252 100 c 0
 180.561 103.145 112.475 141.56 69.0967 198.409 c 0
 25.7188 255.259 5.73828 328.618 10 400 c 0
 13.916 465.592 38.3545 530.447 81.749 579.789 c 0
 125.143 629.131 188.341 661.454 254 664 c 0
  Spiro
    516 394 o
    252 100 o
    10 400 o
    254 664 o
    0 0 z
  EndSpiro
EndSplineSet
EndChar

StartChar: macron
Encoding: 175 175 190
Width: 376
Flags: HW
LayerCount: 2
Fore
SplineSet
72 673 m 1
 72 782.5 l 1
 318.16 782.5 l 1
 318 674 l 1
 72 673 l 1
EndSplineSet
EndChar

StartChar: plusminus
Encoding: 177 177 90
Width: 470
VWidth: 0
Flags: HW
LayerCount: 2
Fore
SplineSet
33 38 m 1
 33 160 l 1
 392.16 160 l 1
 393 38 l 1
 33 38 l 1
276 557 m 1
 276 443 l 1
 392.16 443 l 1
 392 323 l 1
 275 323 l 1
 275 200 l 1
 148 201 l 1
 148 321 l 1
 33 321 l 1
 33 443 l 1
 148 443 l 1
 148 557 l 1
 276 557 l 1
EndSplineSet
EndChar

StartChar: paragraph
Encoding: 182 182 84
Width: 596
VWidth: 0
Flags: HW
LayerCount: 2
Fore
SplineSet
480 520 m 1
 479.12 0 l 1
 583.36 0 l 1
 583.36 668.16 l 1
 253.88 668.16 l 2
 148.28 668.16 122.36 601.92 122.36 555.84 c 0
 122.36 492.94 123.146 486.716 122.36 394.56 c 0
 121.402 282.24 221.24 281.28 221.24 281.28 c 1
 333.6 281.28 l 1
 333.08 407.52 l 1
 272.12 407.52 263.96 399.84 263.96 468.48 c 0
 263.96 527.04 272.6 520.32 344.12 520.32 c 1
 344.12 0 l 1
 456.36 0 l 1
 456.36 520.095 l 1
 480 520 l 1
EndSplineSet
EndChar

StartChar: periodcentered
Encoding: 183 183 188
Width: 282
InSpiro: 1
Flags: HW
LayerCount: 2
Fore
SplineSet
144 339 m 0
 165.796 339.247 187.553 330.378 202.966 314.966 c 0
 218.378 299.553 227.247 277.796 227 256 c 0
 226.749 233.847 217.072 211.954 200.857 196.857 c 0
 184.642 181.76 162.115 173.67 140 175 c 0
 119.039 176.261 98.7014 185.931 84.4929 201.394 c 0
 70.2843 216.856 62.3643 237.937 62.8763 258.93 c 0
 63.3883 279.923 72.3267 300.592 87.2721 315.344 c 0
 102.218 330.095 123.002 338.762 144 339 c 0
  Spiro
    144 339 o
    227 256 o
    140 175 o
    0 0 z
  EndSpiro
EndSplineSet
EndChar

StartChar: cedilla
Encoding: 184 184 83
Width: 1000
VWidth: 0
Flags: H
LayerCount: 2
Fore
SplineSet
271 5 m 1
 198 -128 l 1
 102 -128 l 1
 143 8 l 1
 271 5 l 1
EndSplineSet
EndChar

StartChar: guillemotright
Encoding: 187 187 88
Width: 1000
VWidth: 0
Flags: H
LayerCount: 2
Fore
SplineSet
194 0 m 5
 54 0 l 5
 152 195 l 5
 44 399 l 5
 188 399 l 5
 298 211 l 5
 350 211 l 5
 264 400 l 5
 404 400 l 5
 502 196 l 5
 407 0 l 5
 260 0 l 5
 342 174 l 5
 291 174 l 5
 194 0 l 5
EndSplineSet
EndChar

StartChar: onequarter
Encoding: 188 188 141
Width: 678
VWidth: 0
Flags: HW
LayerCount: 2
Fore
SplineSet
504.144 290.304 m 5
 440.208 183.168 l 5
 504.72 183.168 l 5
 504.144 290.304 l 5
  Spiro
    440.208 183.168 v
    504.72 183.168 v
    504.144 290.304 v
    0 0 z
  EndSpiro
498.96 406.656 m 5
 593.424 406.08 l 5
 592.272 179.712 l 5
 631.44 178.56 l 5
 629.136 93.3115 l 5
 592.272 93.3115 l 5
 592.272 0 l 5
 509.328 0 l 5
 508.176 94.4639 l 5
 359.568 94.4639 l 5
 358.416 176.256 l 5
 498.96 406.656 l 5
  Spiro
    498.96 406.656 v
    593.424 406.08 v
    592.272 179.712 v
    631.44 178.56 v
    629.136 93.312 v
    592.272 93.312 v
    592.272 0 v
    509.328 0 v
    508.176 94.464 v
    359.568 94.464 v
    358.416 176.256 v
    0 0 z
  EndSpiro
21.2236 498.12 m 5
 21.2236 577.608 l 5
 93.7998 685.896 l 5
 169.832 687.048 l 5
 172.288 332 l 5
 84.7363 332 l 5
 85.7363 538.44 l 5
 21.2236 498.12 l 5
558 684 m 5
 184 -1 l 5
 60 1 l 5
 438 684 l 5
 558 684 l 5
EndSplineSet
EndChar

StartChar: onehalf
Encoding: 189 189 142
Width: 678
VWidth: 0
Flags: HW
LayerCount: 2
Fore
SplineSet
21.2236 498.12 m 5
 21.2236 577.608 l 5
 93.7998 685.896 l 5
 169.832 687.048 l 5
 172.288 332 l 5
 84.7363 332 l 5
 85.7363 538.44 l 5
 21.2236 498.12 l 5
631.24 0 m 29
 631.816 76.0322 l 21
 505.672 76.0322 l 4
 505.672 120.96 632.968 202.176 632.968 299.52 c 4
 632.968 351.36 601.864 406.08 541.96 406.08 c 4
 411.784 406.08 421.576 266.112 421 266.112 c 13
 493.576 262.656 l 21
 493.576 262.656 487.816 319.104 523.528 319.104 c 5
 551.176 319.104 550.024 286.272 550.024 286.272 c 4
 550.024 209.664 407.176 191.232 407.176 33.4082 c 4
 407.176 -2.30371 407.176 13.0293 407.176 0 c 29
 631.24 0 l 29
558 684 m 5
 184 -1 l 5
 60 1 l 5
 438 684 l 5
 558 684 l 5
EndSplineSet
EndChar

StartChar: threequarters
Encoding: 190 190 143
Width: 784
VWidth: 0
Flags: HW
LayerCount: 2
Fore
SplineSet
54.3438 666 m 25
 52.04 585.359 l 25
 141.896 585.359 l 25
 57.7998 494.352 l 25
 110.792 440.207 l 17
 110.792 440.783 136.136 466.128 159.176 466.128 c 1
 189.704 466.128 189.81 437.8 189.128 437.903 c 9
 189.128 384.336 l 25
 189.128 384.336 191.432 353.231 161.48 353.231 c 1
 134.984 353.231 136.136 378 136.136 378 c 9
 136.136 396.432 l 25
 46.2803 396.432 l 17
 46.2803 396.432 37.6406 265.104 162.632 263.951 c 0
 287.048 262.805 280.136 368.783 280.136 367.632 c 9
 277.832 490.896 l 17
 277.832 490.896 276.104 532.367 205.832 532.367 c 0
 205.832 532.367 248.347 573.125 275.528 599.184 c 25
 274.376 666 l 25
 54.3438 666 l 25
610.144 290.304 m 1
 546.208 183.168 l 1
 610.72 183.168 l 1
 610.144 290.304 l 1
  Spiro
    546.208 183.168 v
    610.72 183.168 v
    610.144 290.304 v
    0 0 z
  EndSpiro
604.96 406.656 m 1
 699.424 406.08 l 1
 698.272 179.712 l 1
 737.44 178.56 l 1
 735.136 93.3115 l 1
 698.272 93.3115 l 1
 698.272 0 l 1
 615.328 0 l 1
 614.176 94.4639 l 1
 465.568 94.4639 l 1
 464.416 176.256 l 1
 604.96 406.656 l 1
  Spiro
    604.96 406.656 v
    699.424 406.08 v
    698.272 179.712 v
    737.44 178.56 v
    735.136 93.312 v
    698.272 93.312 v
    698.272 0 v
    615.328 0 v
    614.176 94.464 v
    465.568 94.464 v
    464.416 176.256 v
    0 0 z
  EndSpiro
664 684 m 1
 290 -1 l 1
 166 1 l 1
 544 684 l 1
 664 684 l 1
EndSplineSet
EndChar

StartChar: questiondown
Encoding: 191 191 143
Width: 607
VWidth: 0
Flags: HW
LayerCount: 2
Fore
SplineSet
339.28 540.8 m 5
 402.28 540.8 l 5
 402.32 483.12 l 5
 400.374 323.592 250.24 304.8 250.24 199.68 c 5
 250.24 199.68 248.348 143.388 294.4 144.96 c 4
 348.28 146.8 347.32 216.04 347.32 216.04 c 5
 456.28 169.8 l 6
 457.163 169.407 467.28 0 270.681 0 c 4
 170.84 0 110 91.2002 110 177.6 c 4
 110 339.84 263.16 386.8 263.16 462.08 c 4
 263.16 513.061 263.16 518.289 263.16 540.8 c 5
 326.28 540.8 l 5
 326.28 555.8 l 5
 261.28 555.8 l 5
 262.28 676.8 l 5
 401.28 676.8 l 5
 401.28 555.8 l 5
 339.28 555.8 l 5
 339.28 540.8 l 5
EndSplineSet
EndChar

StartChar: Agrave
Encoding: 192 192 87
Width: 507
VWidth: 0
Flags: HW
LayerCount: 2
Fore
SplineSet
296 666.478 m 1
 316.08 666.12 l 1
 487 0 l 1
 337.24 0 l 1
 310.36 109.44 l 1
 197.08 107.52 l 1
 172.12 0 l 1
 20.4395 0 l 1
 192 667 l 1
 108 765 l 1
 247 765 l 1
 296 666.478 l 1
222.04 211.2 m 1
 289.24 213.12 l 1
 253.721 337.92 l 1
 222.04 211.2 l 1
  Spiro
    222.039 211.2 v
    289.239 213.12 v
    253.719 337.92 v
    0 0 z
  EndSpiro
EndSplineSet
EndChar

StartChar: Aacute
Encoding: 193 193 86
Width: 507
VWidth: 0
Flags: HW
LayerCount: 2
Fore
SplineSet
209 668.478 m 1
 269 765 l 1
 395 765 l 1
 317 667 l 1
 487 0 l 1
 337.24 0 l 1
 310.36 109.44 l 1
 197.08 107.52 l 1
 172.12 0 l 1
 20.4395 0 l 1
 191.32 668.16 l 1
 209 668.478 l 1
222.04 211.2 m 1
 289.24 213.12 l 1
 253.721 337.92 l 1
 222.04 211.2 l 1
  Spiro
    222.039 211.2 v
    289.239 213.12 v
    253.719 337.92 v
    0 0 z
  EndSpiro
EndSplineSet
EndChar

StartChar: Acircumflex
Encoding: 194 194 93
Width: 507
VWidth: 0
Flags: HW
LayerCount: 2
Fore
SplineSet
222.04 211.2 m 1
 289.24 213.12 l 1
 253.721 337.92 l 1
 222.04 211.2 l 1
189.08 730 m 5
 317.08 781 l 5
 437.08 730 l 5
 394.08 650 l 5
 316.08 687 l 5
 274.754 668.797 l 5
 317.08 669.12 l 1
 487 0 l 1
 337.24 0 l 1
 310.36 109.44 l 1
 197.08 107.52 l 1
 172.12 0 l 1
 20.4395 0 l 1
 191.32 668.16 l 1
 222.192 668.396 l 5
 189.08 730 l 5
EndSplineSet
EndChar

StartChar: Adieresis
Encoding: 196 196 141
Width: 507
VWidth: 0
Flags: H
LayerCount: 2
Fore
SplineSet
416.064 804.89 m 5
 415.264 668.18 l 5
 295.264 668.18 l 5
 295.264 804.89 l 5
 416.064 804.89 l 5
238.464 804.89 m 5
 237.664 668.18 l 5
 117.664 668.18 l 5
 117.664 804.89 l 5
 238.464 804.89 l 5
EndSplineSet
Refer: 9 65 N 1 0 0 1 0 0 3
EndChar

StartChar: Egrave
Encoding: 200 200 67
Width: 440
VWidth: 0
Flags: HW
LayerCount: 2
Fore
SplineSet
273 667.478 m 5
 224 766 l 5
 85 766 l 5
 170 668 l 5
 69.7207 667.2 l 1
 70.6807 0 l 1
 371.16 0 l 1
 375 124.8 l 1
 219.48 126.72 l 1
 219.48 280.32 l 1
 373.08 284.16 l 1
 375 414.72 l 1
 219.48 414.72 l 1
 217.561 541.44 l 1
 373.08 545.28 l 1
 375 668.16 l 1
 273 667.478 l 5
EndSplineSet
EndChar

StartChar: Eacute
Encoding: 201 201 68
Width: 440
VWidth: 0
Flags: HW
LayerCount: 2
Fore
SplineSet
375 668.16 m 1
 373.08 545.28 l 1
 217.561 541.44 l 1
 219.48 414.72 l 1
 375 414.72 l 1
 373.08 284.16 l 1
 219.48 280.32 l 1
 219.48 126.72 l 1
 375 124.8 l 1
 371.16 0 l 1
 70.6807 0 l 1
 69.7207 667.2 l 1
 159 667.478 l 5
 219 766 l 5
 346.5 766 l 5
 267 668 l 5
 375 668.16 l 1
EndSplineSet
EndChar

StartChar: Edieresis
Encoding: 203 203 142
Width: 440
VWidth: 0
InSpiro: 1
Flags: H
LayerCount: 2
Fore
SplineSet
69.7207 667.2 m 1
 375 668.16 l 1
 373.08 545.28 l 1
 217.561 541.44 l 1
 219.48 414.72 l 1
 375 414.72 l 1
 373.08 284.16 l 1
 219.48 280.32 l 1
 219.48 126.72 l 1
 375 124.8 l 1
 371.16 0 l 1
 70.6807 0 l 1
 69.7207 667.2 l 1
  Spiro
    69.7204 667.2 v
    375 668.16 v
    373.08 545.28 v
    217.56 541.44 v
    219.48 414.72 v
    375 414.72 v
    373.08 284.16 v
    219.48 280.32 v
    219.48 126.72 v
    375 124.8 v
    371.16 0 v
    70.6804 0 v
    0 0 z
  EndSpiro
359.2 785.3 m 1
 358.4 667.7 l 1
 238.4 667.7 l 1
 238.4 785.3 l 1
 359.2 785.3 l 1
  Spiro
    359.2 785.3 v
    358.4 667.7 v
    238.4 667.7 v
    238.4 785.3 v
    0 0 z
  EndSpiro
153.6 786.3 m 1
 152.8 668.7 l 1
 32.7998 668.7 l 1
 32.7998 786.3 l 1
 153.6 786.3 l 1
  Spiro
    153.6 786.3 v
    152.8 668.7 v
    32.7998 668.7 v
    32.7998 786.3 v
    0 0 z
  EndSpiro
EndSplineSet
EndChar

StartChar: Igrave
Encoding: 204 204 144
Width: 384
VWidth: 0
Flags: HW
LayerCount: 2
Fore
SplineSet
242 666.479 m 5
 207 780 l 5
 100 780 l 5
 174 666 l 5
 122.24 666.24 l 5
 122.24 0 l 5
 252.8 0 l 5
 266.24 666.24 l 5
 242 666.479 l 5
EndSplineSet
EndChar

StartChar: Iacute
Encoding: 205 205 145
Width: 384
VWidth: 0
Flags: HW
LayerCount: 2
Fore
SplineSet
142.24 666.479 m 1
 177.24 780 l 1
 284.24 780 l 1
 210.24 666 l 1
 244 666.24 l 1
 244 0 l 1
 113.44 0 l 1
 100 666.24 l 1
 142.24 666.479 l 1
EndSplineSet
EndChar

StartChar: Icircumflex
Encoding: 206 206 97
Width: 384
VWidth: 0
Flags: H
LayerCount: 2
Fore
SplineSet
259.24 689 m 1
 337.24 652 l 1
 380.24 732 l 1
 260.24 783 l 1
 132.24 732 l 1
 167.586 666.24 l 1
 122.24 666.24 l 1
 122.24 0 l 1
 252.8 0 l 1
 266.24 666.24 l 1
 207.569 666.24 l 1
 259.24 689 l 1
EndSplineSet
EndChar

StartChar: Eth
Encoding: 208 208 187
Width: 486
VWidth: 0
Flags: HW
LayerCount: 2
Fore
SplineSet
212.405 296 m 1
 209.718 130.56 l 1
 286.519 130.56 289.398 133.44 289.398 191.04 c 1
 298.037 503.04 l 1
 298.037 545.28 286.037 544.32 216.438 544.32 c 1
 213.867 386 l 1
 266.5 386 l 1
 267.5 385 267 296.5 267 296 c 2
 212.405 296 l 1
19.5 296 m 1
 19 386 l 1
 69.5586 386 l 1
 69.5586 668.16 l 1
 69.5586 668.16 124.278 668.16 193.398 668.16 c 0
 461.238 668.16 435.318 640.32 435.318 389.76 c 0
 435.318 -12.4805 412.278 0 271.158 0 c 2
 69.5586 0 l 1
 69.5586 296 l 1
 19.5 296 l 1
EndSplineSet
EndChar

StartChar: Ntilde
Encoding: 209 209 165
Width: 531
VWidth: 0
Flags: H
LayerCount: 2
Fore
SplineSet
152.423 735.614 m 1
 156.387 739.697 162.226 743.819 169.94 747.981 c 0
 177.656 752.144 185.487 755.936 193.43 759.359 c 0
 201.373 762.783 208.754 765.681 215.571 768.053 c 0
 222.39 770.424 226.881 771.86 229.05 772.363 c 0
 239.889 774.876 251.17 776.436 262.892 777.042 c 0
 274.613 777.648 286.544 778.041 298.689 778.22 c 0
 310.832 778.398 323.172 778.885 335.706 779.679 c 0
 348.24 780.475 360.74 782.317 373.206 785.207 c 0
 384.046 787.72 392.243 791.731 397.799 797.237 c 0
 403.355 802.744 408.657 807.665 413.705 812 c 1
 426 710.416 l 1
 407.732 699.061 l 1
 391.916 691.044 l 1
 378.667 685.994 l 1
 368.91 683.732 358.27 682.453 346.743 682.154 c 0
 335.218 681.857 323.17 681.835 310.603 682.086 c 0
 298.036 682.337 285.311 682.157 272.43 681.545 c 0
 259.549 680.933 247.417 679.307 236.035 676.669 c 0
 224.652 674.03 214.524 670.628 205.648 666.461 c 2
 203.724 665.548 l 1
 307 489.6 l 1
 310.84 668.16 l 1
 451 666.24 l 1
 447.158 0.959961 l 1
 314.68 0.959961 l 1
 312.76 168.96 l 1
 228.278 299.52 l 1
 230.198 -1.91992 l 1
 84.2803 -1.91992 l 1
 80.4404 664.32 l 1
 160.798 665.576 l 1
 152.423 735.614 l 1
EndSplineSet
EndChar

StartChar: Ograve
Encoding: 210 210 183
Width: 494
VWidth: 0
Flags: HW
LayerCount: 2
Fore
SplineSet
223 672 m 1
 223.278 534 l 2
 223.28 533.04 233 546 253.519 545.28 c 0
 281.341 544.304 293.838 518.4 293.838 496.32 c 2
 293.838 188.16 l 2
 293.838 152.64 279.438 132.48 247.758 132.48 c 0
 211.278 132.48 204.559 163.2 204.559 185.28 c 2
 205.519 670.08 l 1
 81.6777 643.2 58.6387 595.2 59.5986 380.16 c 2
 61.5186 144 l 1
 61.5186 144 67.2803 -5.84139 243.918 -6.71973 c 0
 436.878 -7.67924 433.998 169.92 433.998 169.92 c 1
 433.998 513.6 l 2
 433.998 561.655 403.855 616.125 341.273 647.04 c 1
 277 770.5 l 1
 138 770 l 1
 223 672 l 1
EndSplineSet
EndChar

StartChar: Oacute
Encoding: 211 211 182
Width: 494
VWidth: 0
Flags: HW
LayerCount: 2
Fore
SplineSet
282.5 766 m 1
 410 766 l 1
 320.079 656.096 l 1
 397.063 627.838 433.998 566.795 433.998 513.6 c 2
 433.998 513.6 433.998 303.955 433.998 169.92 c 1
 433.998 169.92 436.878 -7.67924 243.918 -6.71973 c 0
 67.2803 -5.84139 61.5186 144 61.5186 144 c 1
 59.5986 380.16 l 2
 58.6387 595.2 81.6777 643.2 205.519 670.08 c 1
 204.559 185.28 l 2
 204.559 163.2 211.278 132.48 247.758 132.48 c 0
 279.438 132.48 293.838 152.64 293.838 188.16 c 2
 293.838 496.32 l 2
 293.838 518.4 281.341 544.304 253.519 545.28 c 0
 233 546 223.278 534.96 223.278 534 c 2
 223.278 671.845 l 1
 282.5 766 l 1
EndSplineSet
EndChar

StartChar: multiply
Encoding: 215 215 170
Width: 1000
VWidth: 0
Flags: H
LayerCount: 2
Fore
SplineSet
197 390 m 1
 277 295 l 1
 390 395 l 1
 477 295 l 1
 366 199 l 1
 457 96 l 1
 347 0 l 1
 258 107 l 1
 152 0 l 1
 54 96 l 1
 169 206 l 1
 96 295 l 1
 197 390 l 1
EndSplineSet
EndChar

StartChar: Oslash
Encoding: 216 216 166
Width: 494
VWidth: 0
Flags: HW
LayerCount: 2
Fore
SplineSet
205.169 180.45 m 1
 206.166 158.984 213.874 132.48 247.758 132.48 c 0
 279.438 132.48 293.838 152.64 293.838 188.16 c 2
 293.838 398.595 l 1
 223.288 226 l 0
 223.304 458 l 0
 258.019 544.78 l 0
 237.5 545.5 223.278 534.96 223.278 534 c 2
 223.278 672 l 1
 255.293 672 283.532 667.673 308.082 660.148 c 1
 318 684 l 1
 412 684 l 1
 383.731 618.513 l 1
 417.551 588.094 433.998 549.097 433.998 513.6 c 2
 433.998 513.6 433.998 303.955 433.998 169.92 c 1
 433.998 169.92 436.878 -7.67924 243.918 -6.71973 c 0
 198.352 -6.49315 164.157 3.64605 138.499 18.5686 c 1
 130.5 -1 l 1
 34 1 l 1
 73.1793 95.2233 l 1
 62.356 122.222 61.5186 144 61.5186 144 c 2
 60.0986 380.16 l 2
 59.1387 595.2 81.1777 643.2 205.019 670.08 c 1
 205.169 180.45 l 1
EndSplineSet
EndChar

StartChar: Ugrave
Encoding: 217 217 184
Width: 521
VWidth: 0
Flags: HW
LayerCount: 2
Fore
SplineSet
407 667.479 m 1
 358 766 l 1
 219 766 l 1
 304 668 l 9
 305.4 181.44 l 17
 292.921 156.48 285.24 141.12 248.761 141.12 c 0
 212.28 141.12 213.24 185.28 213.24 185.28 c 9
 212.28 668.16 l 25
 75 668.16 l 25
 75 165.12 l 17
 75 109.44 129.721 0 252.601 0.959961 c 1
 391.801 1.91992 443.641 99.8398 443.641 156.48 c 0
 443.641 156.48 441.299 467.689 439.801 666.66 c 21
 407 667.479 l 1
EndSplineSet
EndChar

StartChar: Uacute
Encoding: 218 218 185
Width: 521
VWidth: 0
Flags: HW
LayerCount: 2
Fore
SplineSet
104 667.479 m 1
 164 766 l 1
 291.5 766 l 1
 212 668 l 9
 213.24 185.28 l 17
 213.24 185.28 212.28 141.12 248.761 141.12 c 0
 285.24 141.12 292.921 156.48 305.4 181.44 c 9
 304.44 668.16 l 25
 439.801 668.16 l 25
 441.299 468.604 443.641 156.48 443.641 156.48 c 0
 443.641 99.8398 391.801 1.91992 252.601 0.959961 c 1
 129.721 0 75 109.44 75 165.12 c 9
 75 667.16 l 17
 104 667.479 l 1
EndSplineSet
EndChar

StartChar: agrave
Encoding: 224 224 149
Width: 617
VWidth: 0
Flags: HW
LayerCount: 2
Fore
SplineSet
349.051 498.85 m 1
 363.252 498.551 l 1
 519.938 0 l 1
 388.891 0 l 1
 299.152 247.851 l 1
 277.785 162.385 l 1
 324.791 160.961 l 1
 350.431 84.041 l 1
 247.872 81.1914 l 1
 225.081 0 l 1
 92.6084 0 l 1
 227.93 501.399 l 1
 263.726 500.646 l 1
 191.656 585.34 l 5
 303.04 585.34 l 5
 349.051 498.85 l 1
EndSplineSet
EndChar

StartChar: aacute
Encoding: 225 225 150
Width: 617
VWidth: 0
Flags: HW
LayerCount: 2
Fore
SplineSet
363.252 498.551 m 1
 519.938 0 l 1
 388.891 0 l 1
 299.152 247.851 l 1
 277.785 162.385 l 1
 324.791 160.961 l 1
 350.431 84.041 l 1
 247.872 81.1914 l 1
 225.081 0 l 1
 92.6084 0 l 1
 227.93 501.399 l 1
 254.5 500.84 l 5
 299.147 589.34 l 5
 410.531 589.34 l 5
 335.839 500.156 l 5
 363.252 498.551 l 1
EndSplineSet
EndChar

StartChar: acircumflex
Encoding: 226 226 151
Width: 617
VWidth: 0
Flags: HW
LayerCount: 2
Fore
SplineSet
363.252 498.551 m 1
 519.938 0 l 1
 388.891 0 l 1
 299.152 247.851 l 1
 277.785 162.385 l 1
 324.791 160.961 l 1
 350.431 84.041 l 1
 247.872 81.1914 l 1
 225.081 0 l 1
 92.6084 0 l 1
 227.93 501.399 l 1
 274.895 500.411 l 1
 246.09 554 l 1
 358.73 598.88 l 1
 464.33 554 l 1
 426.49 483.6 l 1
 357.851 516.159 l 1
 321.483 500.141 l 1
 363.252 498.551 l 1
EndSplineSet
EndChar

StartChar: ccedilla
Encoding: 231 231 155
Width: 425
VWidth: 0
Flags: H
LayerCount: 2
Fore
SplineSet
139.238 11.8935 m 1
 99.335 -120.467 l 1
 195.335 -120.467 l 1
 266.509 9.20554 l 1
 266.509 9.20554 l 1
 397.565 48.7575 383.511 202.269 383.511 202.269 c 1
 251.039 200.845 l 1
 251.039 168.083 253.888 135.321 214.003 135.321 c 0
 176.969 135.321 178.393 179.479 178.393 179.479 c 1
 178.393 341.863 l 1
 178.393 341.863 178.393 380.322 212.578 380.322 c 0
 249.614 380.322 251.039 347.561 251.039 310.525 c 1
 384.935 316.224 l 1
 384.935 316.224 393.461 505.583 215.428 502.824 c 0
 31.6768 499.976 50.1934 307.677 50.1934 307.677 c 1
 53.043 146.717 l 1
 53.043 146.717 61.771 46.8319 139.238 11.8935 c 1
 139.238 11.8935 l 1
EndSplineSet
EndChar

StartChar: egrave
Encoding: 232 232 89
Width: 487
VWidth: 0
Flags: HW
LayerCount: 2
Fore
SplineSet
282.744 502.812 m 5
 257.04 578.34 l 5
 145.656 578.34 l 5
 201.349 500.156 l 5
 124.654 499.622 l 5
 127.503 2.84863 l 1
 361.109 -1.4248 l 1
 362.533 106.832 l 1
 252.853 106.832 l 1
 252.853 193.723 l 1
 362.533 197.995 l 1
 362.533 300.555 l 1
 252.853 300.555 l 1
 252.853 395.991 l 1
 362.533 395.991 l 1
 362.533 502.824 l 5
 282.744 502.812 l 5
EndSplineSet
EndChar

StartChar: eacute
Encoding: 233 233 90
Width: 487
VWidth: 0
Flags: HW
LayerCount: 2
Fore
SplineSet
124.654 500.682 m 1
 204.443 500.669 l 1
 230.147 578.34 l 1
 341.531 578.34 l 1
 285.839 500.156 l 1
 362.533 499.622 l 1
 362.533 395.991 l 1
 252.853 395.991 l 1
 252.853 300.555 l 1
 362.533 300.555 l 1
 362.533 197.995 l 1
 252.853 193.723 l 1
 252.853 106.832 l 1
 362.533 106.832 l 1
 361.109 -1.4248 l 1
 127.503 1.77832 l 1
 124.654 500.682 l 1
EndSplineSet
EndChar

StartChar: edieresis
Encoding: 235 235 172
Width: 487
VWidth: 0
Flags: HW
LayerCount: 2
Fore
SplineSet
124.654 498.551 m 1
 127.503 2.84863 l 1
 361.109 -1.4248 l 1
 362.533 106.832 l 1
 252.853 106.832 l 1
 252.853 193.723 l 1
 362.533 197.995 l 1
 362.533 300.555 l 1
 252.853 300.555 l 1
 252.853 395.991 l 1
 362.533 395.991 l 1
 362.533 502.824 l 1
 124.654 498.551 l 1
  Spiro
    124.654 498.55 v
    127.503 2.84886 v
    361.109 -1.42443 v
    362.533 106.832 v
    252.852 106.832 v
    252.852 193.722 v
    362.533 197.996 v
    362.533 300.555 v
    252.852 300.555 v
    252.852 395.992 v
    362.533 395.992 v
    362.533 502.824 v
    0 0 z
  EndSpiro
EndSplineSet
EndChar

StartChar: igrave
Encoding: 236 236 168
Width: 285
VWidth: 0
Flags: HW
LayerCount: 2
Fore
SplineSet
184 500 m 13
 203.576 499.976 l 21
 205 0 l 5
 79.6494 1.4248 l 5
 82.499 499.627 l 13
 100.766 499.957 l 21
 28 589.34 l 5
 139.384 589.34 l 5
 184 500 l 13
EndSplineSet
EndChar

StartChar: iacute
Encoding: 237 237 169
Width: 285
VWidth: 0
Flags: HW
LayerCount: 2
Fore
SplineSet
101 500 m 13
 81.4238 499.976 l 21
 80 0 l 5
 205.351 1.4248 l 5
 202.501 499.627 l 13
 184.234 499.957 l 21
 257 589.34 l 5
 145.616 589.34 l 5
 101 500 l 13
EndSplineSet
EndChar

StartChar: icircumflex
Encoding: 238 238 175
Width: 374
VWidth: 0
Flags: HW
LayerCount: 2
Fore
SplineSet
126.432 497.127 m 1
 123.582 1.4248 l 1
 248.933 0 l 1
 247.509 499.976 l 1
 126.432 497.127 l 1
  Spiro
    126.432 497.126 v
    123.583 1.42443 v
    248.933 0 v
    247.508 499.975 v
    0 0 z
  EndSpiro
EndSplineSet
EndChar

StartChar: idieresis
Encoding: 239 239 171
Width: 285
VWidth: 0
Flags: HW
LayerCount: 2
Fore
SplineSet
192.125 499.81 m 1
 192.125 517.115 l 1
 160.849 517.115 l 1
 160.849 590.823 l 1
 233.606 590.823 l 1
 233.017 517.115 l 1
 203.57 517.115 l 1
 203.576 499.976 l 1
 205 0 l 1
 79.1494 1.4248 l 5
 83.9805 496.117 l 5
 84.4805 517.854 l 1
 53.2041 517.854 l 1
 53.2041 591.562 l 1
 125.963 591.562 l 1
 125.373 517.854 l 1
 95.9258 517.854 l 1
 96.0811 497.455 l 1
 192.125 499.81 l 1
EndSplineSet
EndChar

StartChar: ntilde
Encoding: 241 241 186
Width: 503
VWidth: 0
Flags: HW
LayerCount: 2
Fore
SplineSet
182.487 499.715 m 1
 281.979 380.322 l 1
 283.403 499.976 l 1
 420.147 499.976 l 1
 422.997 0 l 1
 290.525 0 l 1
 284.826 176.629 l 1
 215.03 253.549 l 1
 219.304 0 l 1
 82.5586 0 l 1
 79.71 499.551 l 1
 149.595 499.522 l 1
 141.148 563.474 l 1
 144.41 567.084 149.736 571.213 156.125 574.862 c 0
 162.516 578.512 169.004 581.832 175.591 584.82 c 0
 182.179 587.809 188.303 590.334 193.963 592.395 c 0
 199.621 594.454 203.352 595.701 205.154 596.132 c 0
 214.166 598.285 223.555 599.585 233.32 600.033 c 0
 243.086 600.481 253.031 600.735 263.154 600.797 c 0
 273.278 600.858 283.56 601.193 294.001 601.803 c 0
 304.443 602.412 314.845 603.954 325.209 606.432 c 0
 334.221 608.586 341.013 612.097 345.589 616.963 c 0
 350.165 621.829 354.533 626.176 358.697 630 c 1
 370 539.317 l 1
 354.888 529.338 l 1
 341.785 522.315 l 1
 330.788 517.92 l 1
 322.679 515.98 313.82 514.924 304.214 514.751 c 0
 294.607 514.578 284.564 514.653 274.082 514.978 c 0
 263.603 515.302 252.996 515.243 242.262 514.8 c 0
 231.529 514.357 221.432 513.005 211.97 510.743 c 0
 202.507 508.481 194.057 505.611 186.741 501.883 c 2
 182.487 499.715 l 1
EndSplineSet
EndChar

StartChar: ograve
Encoding: 242 242 176
Width: 430
VWidth: 0
Flags: HW
LayerCount: 2
Fore
SplineSet
203.384 586 m 1
 89.5 586 l 1
 155.139 498.02 l 1
 100.592 478.696 39.5908 423.281 39.5908 272.066 c 0
 39.5908 29.9131 146.423 -9.97026 213.371 -5.69727 c 0
 308.657 0.384409 390 37.0361 390 246.427 c 0
 390 354.683 384.304 475.76 256.104 505.673 c 1
 256.104 141.019 l 1
 256.104 141.019 246.133 122.501 219.068 122.501 c 0
 182.034 122.501 184.883 148.141 184.883 148.141 c 1
 184.883 347.561 l 2
 184.883 346.137 187.731 381.747 214.795 381.747 c 0
 233.5 381.747 239 373.2 239.133 373.2 c 1
 239.133 505.673 l 1
 203.384 586 l 1
EndSplineSet
EndChar

StartChar: oacute
Encoding: 243 243 177
Width: 430
VWidth: 0
Flags: HW
LayerCount: 2
Fore
SplineSet
239 504.333 m 1
 239.133 373.2 l 1
 239 373.167 233.667 381.747 214.795 381.747 c 0
 187.731 381.747 184.883 346.137 184.883 347.561 c 2
 184.883 148.141 l 1
 184.883 148.141 182.034 122.501 219.068 122.501 c 0
 246.133 122.501 256.104 141.019 256.104 141.019 c 1
 256.104 505.673 l 1
 384.304 475.76 390 354.683 390 246.427 c 0
 390 37.0361 308.657 0.384409 213.371 -5.69727 c 0
 146.423 -9.97026 39.5908 29.9131 39.5908 272.066 c 0
 39.5908 425.952 102.767 482.123 157.806 500.02 c 1
 206.616 594 l 1
 317.5 593 l 1
 239 504.333 l 1
EndSplineSet
EndChar

StartChar: ocircumflex
Encoding: 244 244 180
Width: 580
VWidth: 0
Flags: HW
LayerCount: 2
Fore
SplineSet
318.387 505.673 m 21
 318.387 505.673 111.845 545.557 111.845 272.066 c 4
 111.845 29.9131 218.677 -9.9707 285.625 -5.69727 c 4
 380.911 0.383789 462.254 37.0361 462.254 246.427 c 5
 462.254 354.683 456.557 475.76 328.358 505.673 c 13
 328.358 141.019 l 21
 328.358 141.019 318.387 122.501 291.322 122.501 c 4
 254.288 122.501 257.137 148.141 257.137 148.141 c 13
 257.137 347.561 l 21
 257.137 346.137 259.985 381.747 287.049 381.747 c 4
 314.113 381.747 306.164 376.533 318.387 373.2 c 29
 318.387 505.673 l 21
EndSplineSet
EndChar

StartChar: otilde
Encoding: 245 245 179
Width: 430
VWidth: 0
Flags: HW
LayerCount: 2
Fore
SplineSet
161.262 500.05 m 2
 161.262 500.05 171.002 505.621 177.07 508.328 c 0
 183.54 511.215 190.835 513.374 198.957 514.807 c 0
 207.078 516.239 215.658 516.77 224.695 516.398 c 0
 233.733 516.027 242.634 515.305 251.396 514.23 c 0
 260.158 513.156 268.576 512.349 276.646 511.807 c 0
 284.717 511.265 292.233 511.608 299.194 512.836 c 1
 308.776 516.162 l 1
 320.343 521.804 l 1
 333.838 530.076 l 1
 332.317 616.163 l 5
 328.512 612.873 323.99 609.107 319.753 604.868 c 0
 315.516 600.629 309.53 597.826 301.795 596.462 c 0
 292.9 594.894 284.049 594.206 275.242 594.399 c 0
 266.435 594.593 257.785 595.033 249.29 595.718 c 0
 240.795 596.402 232.434 596.893 224.207 597.188 c 0
 215.979 597.484 207.999 596.95 200.265 595.587 c 0
 198.718 595.313 195.487 594.416 190.571 592.895 c 0
 185.655 591.372 180.312 589.448 174.541 587.121 c 0
 168.772 584.795 163.057 582.149 157.398 579.187 c 0
 151.74 576.224 147.394 573.167 144.361 570.012 c 1
 146.044 494.474 l 1
 94.0332 472.275 39.5908 414.921 39.5908 272.066 c 0
 39.5908 29.9131 146.423 -9.97026 213.371 -5.69727 c 0
 308.657 0.384409 390 37.0361 390 246.427 c 0
 390 354.683 384.304 475.76 256.104 505.673 c 1
 256.104 141.019 l 1
 256.104 141.019 246.133 122.501 219.068 122.501 c 0
 182.034 122.501 184.883 148.141 184.883 148.141 c 1
 184.883 347.561 l 2
 184.883 346.137 187.731 381.747 214.795 381.747 c 0
 233.667 381.747 239 373.333 239.133 373.2 c 2
 239.133 505.673 l 1
 239.133 505.673 202.87 512.921 161.262 500.05 c 1
 161.262 500.05 l 2
EndSplineSet
EndChar

StartChar: odieresis
Encoding: 246 246 180
Width: 430
VWidth: 0
Flags: HW
LayerCount: 2
Fore
SplineSet
278.108 499.246 m 1
 271.207 501.708 263.881 503.858 256.104 505.673 c 1
 256.104 141.019 l 1
 256.104 141.019 246.133 122.501 219.068 122.501 c 0
 182.034 122.501 184.883 148.141 184.883 148.141 c 1
 184.883 347.561 l 2
 184.883 346.137 187.731 381.747 214.795 381.747 c 0
 233.667 381.747 239 373.333 239.133 373.2 c 2
 239.133 505.673 l 1
 239.133 505.673 208.663 511.763 171.536 502.865 c 1
 171.409 517.854 l 1
 201.356 517.854 l 1
 201.446 591.562 l 1
 128.688 591.562 l 1
 128.688 517.854 l 1
 159.963 517.854 l 1
 159.963 499.642 l 1
 104.256 481.892 39.5908 427.756 39.5908 272.066 c 0
 39.5908 29.9131 146.423 -9.97026 213.371 -5.69727 c 0
 308.657 0.384409 390 37.0361 390 246.427 c 0
 390 344.355 385.339 452.774 289.553 494.713 c 1
 289.553 517.115 l 1
 319.5 517.115 l 1
 319.589 590.823 l 1
 246.832 590.823 l 1
 246.832 517.115 l 1
 278.108 517.115 l 1
 278.108 499.246 l 1
EndSplineSet
EndChar

StartChar: divide
Encoding: 247 247 118
Width: 436
Flags: HW
LayerCount: 2
Fore
SplineSet
300 465 m 1
 300 324 l 1
 142 324 l 1
 142 465 l 1
 300 465 l 1
301 141 m 1
 301 0 l 1
 142 0 l 1
 142 141 l 1
 301 141 l 1
50 293 m 0
 386 293 l 0
 386 173 l 0
 50 173 l 0
 50 293 l 0
EndSplineSet
EndChar

StartChar: oslash
Encoding: 248 248 181
Width: 416
VWidth: 0
Flags: HW
LayerCount: 2
Fore
SplineSet
234.133 371.7 m 1
 234 371.5 230 381.747 209.795 381.747 c 0
 182.731 381.747 179.883 347.561 179.883 347.561 c 1
 179.883 285.71 l 1
 234.133 371.7 l 1
239 217.5 m 9
 187.396 136.542 l 17
 190.959 129.752 199.374 122.501 219.068 122.501 c 0
 246.133 122.501 256.104 141.019 256.104 141.019 c 1
 256.104 249.107 l 1
 256.104 505.673 l 1
 276.622 500.886 294.002 493.763 308.723 484.731 c 1
 325 510 l 1
 416.5 510 l 1
 364 424 l 1
 389.111 373.284 390 308.5 390 246.427 c 0
 390 37.0361 303.5 -5.69727 213.371 -5.69727 c 0
 185.18 -5.69727 150.06 -1.49075 118.728 24.0431 c 1
 101 -3 l 1
 9 -3 l 1
 68.6485 94.0644 l 1
 50.9788 135.506 39.5908 193.005 39.5908 272.066 c 0
 39.5908 545.557 239.133 508.673 239.133 508.673 c 1
 239 217.5 l 9
EndSplineSet
EndChar

StartChar: ugrave
Encoding: 249 249 172
Width: 444
VWidth: 0
Flags: HW
LayerCount: 2
Fore
SplineSet
343.811 500.52 m 1
 300.5 588.34 l 1
 189.116 588.34 l 1
 261.882 499.457 l 9
 262.661 180.902 l 17
 262.661 180.902 271.208 126.773 225.626 126.773 c 0
 180.044 126.773 190.016 195.146 190.016 223.635 c 9
 195.713 499.976 l 25
 68.9385 499.976 l 25
 60.3926 237.88 l 17
 60.3926 170.932 46.1475 0 217.079 0 c 0
 397.98 0 383.736 149.565 383.736 196.571 c 9
 383.736 499.976 l 17
 343.811 500.52 l 1
EndSplineSet
EndChar

StartChar: ucircumflex
Encoding: 251 251 174
Width: 444
VWidth: 0
Flags: HW
LayerCount: 2
Fore
SplineSet
147.428 499.259 m 1
 121.1 549.5 l 1
 234.5 621.6 l 1
 347.9 583.8 l 1
 306.5 510 l 1
 240 534 l 1
 192.059 500.061 l 9
 190.016 223.635 l 17
 190.016 195.146 180.044 126.773 225.626 126.773 c 0
 271.208 126.773 262.661 180.902 262.661 180.902 c 9
 262.661 499.976 l 25
 383.736 499.976 l 25
 383.736 196.571 l 17
 383.736 149.565 397.98 0 217.079 0 c 0
 46.1475 0 60.3926 170.932 60.3926 237.88 c 9
 68.9385 499.976 l 17
 147.428 499.259 l 1
EndSplineSet
EndChar

StartChar: udieresis
Encoding: 252 252 175
Width: 444
VWidth: 0
Flags: HW
LayerCount: 2
Fore
SplineSet
383.736 499.976 m 9
 383.736 196.571 l 17
 383.736 149.565 397.98 0 217.079 0 c 0
 46.1475 0 60.3926 170.932 60.3926 237.88 c 9
 68.9385 499.976 l 17
 151.607 500.117 l 2
 151.607 518.354 l 1
 120.331 518.354 l 1
 120.331 592.062 l 1
 193.09 592.062 l 1
 192.5 518.354 l 1
 163.053 518.354 l 1
 163.208 499.955 l 1
 195.713 499.976 l 9
 190.016 223.635 l 17
 190.016 195.146 180.044 126.773 225.626 126.773 c 0
 271.208 126.773 262.661 180.902 262.661 180.902 c 9
 262.661 499.976 l 17
 297.276 500.194 l 1
 297.276 518 l 1
 266 518 l 1
 266 591.708 l 1
 338.758 591.708 l 1
 338.168 518 l 1
 308.722 518 l 1
 308.722 500.732 l 1
 383.736 499.976 l 9
EndSplineSet
EndChar

StartChar: yacute
Encoding: 253 253 188
Width: 640
VWidth: 0
Flags: HW
LayerCount: 2
Fore
SplineSet
261.764 502.824 m 1
 308.77 381.747 l 1
 381.415 501.399 l 1
 538.103 499.976 l 1
 377.142 232.183 l 1
 374.293 0 l 1
 230.426 0 l 1
 236.123 240.729 l 1
 105.076 495.702 l 1
 261.764 502.824 l 1
  Spiro
    261.763 502.824 v
    308.769 381.747 v
    381.415 501.399 v
    538.102 499.975 v
    377.142 232.182 v
    374.293 0 v
    230.426 0 v
    236.123 240.729 v
    105.076 495.702 v
    0 0 z
  EndSpiro
EndSplineSet
EndChar

StartChar: OE
Encoding: 338 338 78
Width: 679
VWidth: 0
Flags: HW
LayerCount: 2
Fore
SplineSet
241.76 -1.71973 m 0
 65.1221 -0.841797 60.3604 144 60.3604 144 c 9
 58.4404 380.16 l 17
 58.4404 540 70.8398 648 238.36 665.08 c 1
 597.84 668.16 l 1
 595.92 545.28 l 9
 254.84 545 l 17
 202.84 545 209.84 494 209.84 494 c 0
 209.84 169 l 1
 209.84 169 212.84 132.48 246.6 132.48 c 1
 292.84 132.48 293.84 189 292.68 188.16 c 9
 292.68 527.82 l 17
 442.84 527.5 l 25
 442.32 414.72 l 17
 597.84 414.72 l 1
 595.92 284.16 l 1
 442.32 280.32 l 1
 442.32 126.72 l 1
 597.84 124.8 l 1
 594 0 l 1
 241.76 -1.71973 l 0
EndSplineSet
EndChar

StartChar: oe
Encoding: 339 339 158
Width: 568
VWidth: 0
Flags: HW
LayerCount: 2
Fore
SplineSet
243.908 153.87 m 17
 243.908 153.87 240.363 122.501 213.299 122.501 c 0
 176.265 122.501 179.113 157.779 179.113 157.779 c 9
 179.113 351.846 l 17
 179.113 350.421 174.732 396.741 209.025 396.741 c 0
 378.319 395.991 l 1
 488 395.991 l 1
 488 499.61 l 1
 227.512 499.246 l 1
 227.512 499.246 59.5254 510.866 59.5254 262.427 c 0
 59.5254 20.2734 171.52 1.07031 224.737 -0.342773 c 0
 486.575 -0.353516 l 1
 488 106.832 l 1
 378.319 106.832 l 1
 378.319 193.723 l 1
 488 197.995 l 1
 488 300.555 l 1
 378.319 300.555 l 1
 378.319 383.418 l 0
 378.223 383.418 244.348 383.418 244.348 383.418 c 9
 243.908 153.87 l 17
EndSplineSet
EndChar

StartChar: ring
Encoding: 730 730 104
Width: 305
Flags: HW
LayerCount: 2
Fore
SplineSet
163 672 m 0
 177 672 190.833 669.833 204.5 665.5 c 0
 218.167 661.167 230.333 654.5 241 645.5 c 0
 251.667 636.5 260.333 624.833 267 610.5 c 0
 273.667 596.167 277 579.333 277 560 c 0
 277 546 275.167 534.167 271.5 524.5 c 0
 267.833 514.833 264 506.667 260 500 c 0
 254.667 492.667 249 486.667 243 482 c 0
 188 548 l 0
 188.667 549.333 189.667 551 191 553 c 0
 191.667 554.333 192.333 556.167 193 558.5 c 0
 193.667 560.833 194 563 194 565 c 0
 194 568.333 191.5 573.5 186.5 580.5 c 0
 181.5 587.5 175.333 591 168 591 c 0
 160.667 591 154.167 588.167 148.5 582.5 c 0
 142.833 576.833 140 570 140 562 c 0
 140 553.333 143.667 546.667 151 542 c 0
 158.333 537.333 164 535 168 535 c 0
 170.667 535 174 536.333 178 539 c 0
 180 540.333 181.667 541.667 183 543 c 0
 239 477 l 0
 234.333 471.667 228.333 467 221 463 c 0
 215 459.667 207.5 456.5 198.5 453.5 c 0
 189.5 450.5 178.667 449 166 449 c 0
 145.333 449 127.667 452.5 113 459.5 c 0
 98.3333 466.5 86.5 475.5 77.5 486.5 c 0
 68.5 497.5 61.8333 509.833 57.5 523.5 c 0
 53.1667 537.167 51 550.333 51 563 c 0
 51 581.667 54.6667 597.833 62 611.5 c 0
 69.3333 625.167 78.5 636.5 89.5 645.5 c 0
 100.5 654.5 112.5 661.167 125.5 665.5 c 0
 138.5 669.833 151 672 163 672 c 0
EndSplineSet
EndChar

StartChar: endash
Encoding: 8211 8211 116
Width: 361
Flags: HW
LayerCount: 2
Fore
SplineSet
50 233 m 0
 311 233 l 0
 311 105 l 0
 50 105 l 0
 50 233 l 0
EndSplineSet
EndChar

StartChar: emdash
Encoding: 8212 8212 117
Width: 794
Flags: HW
LayerCount: 2
Fore
SplineSet
60 238 m 0
 734 238 l 0
 734 108 l 0
 60 108 l 0
 60 238 l 0
EndSplineSet
EndChar

StartChar: quoteright
Encoding: 8217 8217 191
Width: 283
VWidth: 0
Flags: HW
LayerCount: 2
Fore
SplineSet
92 383 m 1
 111 505 l 1
 59 505 l 1
 68 666 l 1
 229 666 l 1
 178 384 l 1
 92 383 l 1
EndSplineSet
EndChar

StartChar: daggerdbl
Encoding: 8225 8225 113
Width: 413
Flags: HW
LayerCount: 2
Fore
SplineSet
129 526 m 0
 129 665 l 0
 278 666 l 0
 278 526 l 0
 377 526 l 0
 377 393 l 0
 278 393 l 0
 278 -1 l 0
 129 -1 l 0
 129 393 l 0
 36 393 l 0
 35 526 l 0
 129 526 l 0
EndSplineSet
EndChar

StartChar: bullet
Encoding: 8226 8226 114
Width: 413
Flags: HW
LayerCount: 2
Fore
SplineSet
278 -1 m 1
 129 -1 l 1
 129 170 l 0
 36 170 l 0
 35 303 l 0
 129 303 l 0
 129 393 l 1
 36 393 l 1
 35 526 l 1
 129 526 l 1
 129 665 l 1
 278 666 l 1
 278 526 l 1
 377 526 l 1
 377 393 l 1
 278 393 l 1
 278 303 l 0
 377 303 l 0
 377 170 l 0
 278 170 l 0
 278 -1 l 1
EndSplineSet
EndChar

StartChar: uni2023
Encoding: 8227 8227 115
Width: 332
InSpiro: 1
Flags: HW
LayerCount: 2
Fore
SplineSet
70 344 m 1
 70 134 l 1
 289 235 l 1
 70 344 l 1
  Spiro
    70 344 v
    70 134 v
    289 235 v
    0 0 z
  EndSpiro
EndSplineSet
EndChar

StartChar: guilsinglleft
Encoding: 8249 8249 129
Width: 390
VWidth: 0
Flags: HW
LayerCount: 2
Fore
SplineSet
224 202 m 5
 310 400 l 5
 170 400 l 5
 72 196 l 5
 167 0 l 5
 314 0 l 5
 224 202 l 5
EndSplineSet
EndChar

StartChar: guilsinglright
Encoding: 8250 8250 128
Width: 390
VWidth: 0
Flags: HW
LayerCount: 2
Fore
SplineSet
162 202 m 5
 76 400 l 5
 216 400 l 5
 314 196 l 5
 219 0 l 5
 72 0 l 5
 162 202 l 5
EndSplineSet
EndChar

StartChar: arrowleft
Encoding: 8592 8592 130
Width: 742
Flags: HW
LayerCount: 2
Fore
SplineSet
242 298 m 0
 701 298 l 0
 658 229 l 0
 682 157 l 0
 220 158 l 0
 199 31 l 0
 55 228 l 0
 262 424 l 0
 242 298 l 0
EndSplineSet
EndChar

StartChar: arrowup
Encoding: 8593 8593 131
Width: 469
Flags: HW
LayerCount: 2
Fore
SplineSet
309 469 m 0
 225 0 l 0
 164 38 l 0
 81 0 l 0
 159 469 l 0
 42 469 l 0
 261 654 l 0
 431 469 l 0
 309 469 l 0
EndSplineSet
EndChar

StartChar: arrowright
Encoding: 8594 8594 132
Width: 742
Flags: HW
LayerCount: 2
Fore
SplineSet
515 157 m 0
 55 158 l 0
 98 227 l 0
 75 298 l 0
 537 298 l 0
 558 424 l 0
 701 227 l 0
 495 31 l 0
 515 157 l 0
EndSplineSet
EndChar

StartChar: arrowdown
Encoding: 8595 8595 133
Width: 469
Flags: HW
LayerCount: 2
Fore
SplineSet
164 185 m 0
 248 654 l 0
 309 616 l 0
 392 654 l 0
 314 185 l 0
 431 185 l 0
 212 0 l 0
 42 185 l 0
 164 185 l 0
EndSplineSet
EndChar

StartChar: arrowboth
Encoding: 8596 8596 134
Width: 845
Flags: HW
LayerCount: 2
Fore
SplineSet
608 312 m 0
 629 439 l 0
 801 245 l 0
 565 48 l 0
 585 172 l 0
 220 172 l 0
 200 46 l 0
 48 244 l 0
 264 441 l 0
 243 313 l 0
 608 312 l 0
EndSplineSet
EndChar

StartChar: infinity
Encoding: 8734 8734 106
Width: 613
VWidth: 0
Flags: HW
LayerCount: 2
Fore
SplineSet
204 349 m 1
 210.667 349 219.667 348 231 346 c 0
 242.333 344 254 341.333 266 338 c 0
 278 334.667 289.5 330.667 300.5 326 c 0
 311.5 321.333 320.333 316.667 327 312 c 1
 362 156 l 1
 368 152.667 374.333 150 381 148 c 0
 387.667 146 394.333 145 401 145 c 0
 414.333 145 425 149.333 433 158 c 0
 441 166.667 446 175.333 448 184 c 0
 451.333 198.667 448.833 210 440.5 218 c 0
 432.167 226 423.333 230 414 230 c 0
 400.667 230 389.5 227.833 380.5 223.5 c 0
 371.5 219.167 364.333 214.333 359 209 c 1
 336 312 l 1
 348 322.667 360.833 330.833 374.5 336.5 c 0
 388.167 342.167 401.167 346.167 413.5 348.5 c 0
 425.833 350.833 437 352 447 352 c 2
 470 352 l 2
 482.667 352 496.833 349 512.5 343 c 0
 528.167 337 542.5 327 555.5 313 c 0
 568.5 299 578.5 280.667 585.5 258 c 0
 592.5 235.333 593.333 207.667 588 175 c 0
 588 174.333 586 166.167 582 150.5 c 0
 578 134.833 570 117.833 558 99.5 c 0
 546 81.1667 529.167 64.3333 507.5 49 c 0
 485.833 33.6667 457 26 421 26 c 2
 409 26 l 2
 403 26 393.5 27.1667 380.5 29.5 c 0
 367.5 31.8333 354 35 340 39 c 0
 326 43 313.167 47.3333 301.5 52 c 0
 289.833 56.6667 282.333 61 279 65 c 1
 235 218 l 1
 231.667 219.333 225.667 221.5 217 224.5 c 0
 208.333 227.5 202 229 198 229 c 0
 186 229 174.167 225.5 162.5 218.5 c 0
 150.833 211.5 143.333 201.333 140 188 c 1
 138 174.667 141.5 164.5 150.5 157.5 c 0
 159.5 150.5 170.667 147 184 147 c 0
 188 147 192.833 147.833 198.5 149.5 c 0
 204.167 151.167 210 153 216 155 c 0
 222 157 227.333 159.167 232 161.5 c 0
 236.667 163.833 240 166 242 168 c 1
 271 61 l 1
 261.667 53 251 46.3333 239 41 c 0
 227 35.6667 214.667 31.5 202 28.5 c 0
 189.333 25.5 176.833 23.5 164.5 22.5 c 0
 152.167 21.5 141.667 21 133 21 c 0
 116.333 21 100.333 25 85 33 c 0
 69.6667 41 56.5 52.5 45.5 67.5 c 0
 34.5 82.5 26.5 100.667 21.5 122 c 0
 16.5 143.333 15.6667 167 19 193 c 0
 21.6667 215.667 27.8333 236.667 37.5 256 c 0
 47.1667 275.333 59.5 291.833 74.5 305.5 c 0
 89.5 319.167 106.833 329.833 126.5 337.5 c 0
 146.167 345.167 167.667 349 191 349 c 2
 204 349 l 1
 204 349 l 1
EndSplineSet
EndChar
